<svg width="22" height="22" viewBox="0 0 22 22" fill="none" xmlns="http://www.w3.org/2000/svg">
<path fill-rule="evenodd" clip-rule="evenodd" d="M20.815 3.01842C21.173 3.37641 21.173 3.95681 20.815 4.31479L11.6483 13.4815C11.2904 13.8394 10.71 13.8394 10.352 13.4815L7.60198 10.7315C7.244 10.3735 7.244 9.79307 7.60198 9.43509C7.95996 9.07711 8.54036 9.07711 8.89834 9.43509L11.0002 11.5369L19.5186 3.01842C19.8766 2.66044 20.457 2.66044 20.815 3.01842Z" fill="#C2C3DA"/>
<path fill-rule="evenodd" clip-rule="evenodd" d="M4.5835 3.6666C4.34038 3.6666 4.10722 3.76318 3.93531 3.93509C3.76341 4.10699 3.66683 4.34015 3.66683 4.58327V17.4166C3.66683 17.6597 3.76341 17.8929 3.93531 18.0648C4.10722 18.2367 4.34038 18.3333 4.5835 18.3333H17.4168C17.6599 18.3333 17.8931 18.2367 18.065 18.0648C18.2369 17.8929 18.3335 17.6597 18.3335 17.4166V10.9999C18.3335 10.4937 18.7439 10.0833 19.2502 10.0833C19.7564 10.0833 20.1668 10.4937 20.1668 10.9999V17.4166C20.1668 18.1459 19.8771 18.8454 19.3614 19.3611C18.8456 19.8769 18.1462 20.1666 17.4168 20.1666H4.5835C3.85415 20.1666 3.15468 19.8769 2.63895 19.3611C2.12323 18.8454 1.8335 18.1459 1.8335 17.4166V4.58327C1.8335 3.85392 2.12323 3.15445 2.63895 2.63872C3.15468 2.123 3.85415 1.83327 4.5835 1.83327H14.6668C15.1731 1.83327 15.5835 2.24367 15.5835 2.74993C15.5835 3.25619 15.1731 3.6666 14.6668 3.6666H4.5835Z" fill="#C2C3DA"/>
</svg>
