<svg width="36" height="24" viewBox="0 0 36 24" fill="none" xmlns="http://www.w3.org/2000/svg">
<path fill-rule="evenodd" clip-rule="evenodd" d="M13.1136 3.1465C13.1091 3.14982 13.1042 3.15347 13.0989 3.15747C13.033 3.20738 12.9367 3.28645 12.8069 3.39972C12.549 3.62481 12.2076 3.94219 11.7976 4.33408C11.1724 4.93152 10.4176 5.67327 9.6023 6.47446C9.34888 6.7235 9.08962 6.97828 8.82659 7.23625C7.72365 8.31798 6.56 9.45037 5.51861 10.4144C5.02458 10.8717 4.54294 11.3054 4.09882 11.6835C4.55418 12.0905 5.04613 12.5616 5.54744 13.0576C6.59108 14.0902 7.75619 15.313 8.86014 16.4858C9.25008 16.9001 9.6313 17.307 9.99746 17.6977C10.6751 18.421 11.3012 19.0892 11.8354 19.6473C12.2463 20.0765 12.5896 20.4268 12.8502 20.6776C12.9665 20.7896 13.0576 20.8733 13.1251 20.9318C14.5364 21.3312 15.4597 21.565 16.4229 21.5999C17.404 21.6354 18.5042 21.4638 20.2325 20.8901C21.6997 20.4031 23.3154 19.0294 24.5858 17.2021C25.8516 15.3813 26.6273 13.3207 26.6273 11.6452C26.6273 9.98917 25.8667 8.13764 24.6218 6.528C23.3774 4.91906 21.7599 3.69616 20.2391 3.20103C18.4696 2.62497 17.3423 2.39114 16.35 2.39574C15.3954 2.40017 14.4708 2.62587 13.1136 3.1465ZM16.3388 9.16617e-05C17.7244 -0.006333 19.1474 0.325199 20.9866 0.92396C23.0744 1.60366 25.0656 3.17572 26.5278 5.06622C27.9894 6.95603 29.0331 9.30844 29.0331 11.6452C29.0331 13.9625 28.0044 16.4936 26.5638 18.5658C25.1276 20.6315 23.1347 22.452 20.9932 23.1628C19.1128 23.787 17.709 24.0437 16.3355 23.994C14.9889 23.9452 13.7482 23.6007 12.2631 23.1782L12.1691 23.1515L12.0806 23.1099C11.8701 23.0111 11.6865 22.8585 11.592 22.7785C11.4664 22.6723 11.3257 22.5422 11.1779 22.3999C10.8809 22.1139 10.5101 21.7349 10.094 21.3002C9.55145 20.7334 8.90967 20.0485 8.22523 19.318C7.86102 18.9293 7.48472 18.5277 7.10487 18.1241C6.00352 16.9541 4.86309 15.7576 3.8518 14.7571C2.81554 13.7318 1.99121 12.9899 1.5013 12.6647L0 11.668L1.5013 10.6713C2.01089 10.333 2.84691 9.61663 3.88063 8.65972C4.89418 7.72151 6.03606 6.61059 7.13842 5.52942C7.3959 5.2769 7.65154 5.02568 7.90281 4.77875C8.72121 3.97449 9.49332 3.21572 10.1318 2.60559C10.5487 2.20717 10.9215 1.85971 11.2212 1.59813C11.3702 1.46807 11.5135 1.34834 11.6426 1.25057C11.7384 1.17806 11.933 1.03312 12.1574 0.946168C13.6728 0.359074 14.9353 0.0065999 16.3388 9.16617e-05Z" fill="#6D71F9"/>
<path fill-rule="evenodd" clip-rule="evenodd" d="M13.1461 4.52296L12.2051 12.0196L13.1943 17.93L8.62614 13.3811C7.92066 12.6785 7.84129 11.5664 8.43991 10.7716L13.1461 4.52296Z" fill="#6D71F9"/>
<path d="M35.4485 11.645L28.6321 4.48093C28.6321 4.48093 30.5763 7.36995 31.2285 10.0708L32.6417 11.645L31.2285 13.2474C30.5763 15.9593 28.6321 18.8551 28.6321 18.8551L35.4485 11.645Z" fill="#6D71F9"/>
<path fill-rule="evenodd" clip-rule="evenodd" d="M28.2997 4.7027L28.9232 4.20631L36 11.6442L28.924 19.1288L28.2994 18.6337L28.2987 18.6332L28.2997 18.6318L28.3034 18.6262L28.3188 18.603C28.3325 18.5822 28.353 18.5508 28.3795 18.5097C28.4324 18.4275 28.5093 18.3063 28.6039 18.1522C28.7931 17.8436 29.0524 17.4039 29.3317 16.8807C29.8931 15.8294 30.5241 14.4621 30.8386 13.1544L30.8617 13.0582L32.106 11.6474L30.8623 10.262L30.8386 10.1642C30.5242 8.86206 29.8933 7.49924 29.3319 6.45093C29.0526 5.9293 28.7933 5.49073 28.6041 5.18302C28.5096 5.02924 28.4327 4.90835 28.3797 4.82635C28.3532 4.78535 28.3327 4.75409 28.319 4.73331L28.3036 4.71011L28.2999 4.70458L28.2991 4.70337L28.2997 4.7027ZM30.5431 7.0699C30.9529 7.93088 31.3499 8.91066 31.594 9.8789L33.1775 11.6427L31.5946 13.4374C31.3519 14.4048 30.9577 15.3832 30.5498 16.2441L34.897 11.6459L30.5431 7.0699Z" fill="#6D71F9"/>
</svg>
