<svg width="22" height="22" viewBox="0 0 22 22" fill="none" xmlns="http://www.w3.org/2000/svg">
<path d="M1 20L1 18C1 15.7909 2.79086 14 5 14L5.5 14L8.17157 14C8.43679 14 8.69114 14.1054 8.87868 14.2929C10.0503 15.4645 11.9497 15.4645 13.1213 14.2929C13.3089 14.1054 13.5632 14 13.8284 14L16.5 14L17 14C19.2091 14 21 15.7909 21 18L21 20C21 20.5523 20.5523 21 20 21L2 21C1.44772 21 1 20.5523 1 20Z" fill="#6D71F9" stroke="#6D71F9" stroke-width="2"/>
<circle cx="11" cy="6" r="5" stroke="#6D71F9" stroke-width="2"/>
</svg>
