<svg width="22" height="22" viewBox="0 0 22 22" fill="none" xmlns="http://www.w3.org/2000/svg">
<path d="M1 20L1 18C1 15.7909 2.79086 14 5 14L5.5 14L8.17157 14C8.43679 14 8.69114 14.1054 8.87868 14.2929C10.0503 15.4645 11.9497 15.4645 13.1213 14.2929C13.3089 14.1054 13.5632 14 13.8284 14L16.5 14L17 14C19.2091 14 21 15.7909 21 18L21 20C21 20.5523 20.5523 21 20 21L2 21C1.44772 21 1 20.5523 1 20Z" fill="#C2C3DA" stroke="#C2C3DA" stroke-width="2"/>
<circle cx="11" cy="6" r="5" stroke="#C2C3DA" stroke-width="2"/>
<path d="M14.2587 20.088L14.7038 20.3067C15.2009 20.5509 15.8019 20.3446 16.0441 19.8465L17.1076 17.6596C17.3484 17.1644 17.1436 16.5676 16.6493 16.3248L14.8543 15.4428C14.3572 15.1985 13.7562 15.4049 13.514 15.903L12.4505 18.0899C12.2097 18.5851 12.4146 19.1818 12.9088 19.4247L13.3612 19.647" stroke="white"/>
<path d="M6.0014 19C6.0014 19 5.52901 17.1874 5.5014 16C5.4693 14.6197 6.0014 12.5 6.0014 12.5" stroke="white"/>
<path d="M16.4986 16V15.5C16.5307 14.1197 15.9986 12 15.9986 12" stroke="white"/>
<circle cx="6" cy="19" r="1" fill="white"/>
</svg>
