<svg width="22" height="22" viewBox="0 0 22 22" fill="none" xmlns="http://www.w3.org/2000/svg">
<path d="M1 20L1 18C1 15.7909 2.79086 14 5 14L5.5 14L8.17157 14C8.43679 14 8.69114 14.1054 8.87868 14.2929C10.0503 15.4645 11.9497 15.4645 13.1213 14.2929C13.3089 14.1054 13.5632 14 13.8284 14L16.5 14L17 14C19.2091 14 21 15.7909 21 18L21 20C21 20.5523 20.5523 21 20 21L2 21C1.44772 21 1 20.5523 1 20Z" fill="#6D71F9" stroke="#6D71F9" stroke-width="2"/>
<circle cx="11" cy="6" r="5" stroke="#6D71F9" stroke-width="2"/>
<path d="M14.2607 20.088L14.7058 20.3067C15.2029 20.5509 15.8038 20.3446 16.0461 19.8465L17.1096 17.6596C17.3504 17.1644 17.1455 16.5676 16.6513 16.3248L14.8563 15.4428C14.3591 15.1985 13.7582 15.4049 13.516 15.903L12.4525 18.0899C12.2116 18.5851 12.4165 19.1818 12.9108 19.4247L13.3632 19.647" stroke="white"/>
<path d="M5.99944 19C5.99944 19 5.52706 17.1874 5.49944 16C5.46734 14.6197 5.99944 12.5 5.99944 12.5" stroke="white"/>
<path d="M16.5006 16V15.5C16.5327 14.1197 16.0006 12 16.0006 12" stroke="white"/>
<circle cx="6" cy="19" r="1" fill="white"/>
</svg>
