<svg width="22" height="22" viewBox="0 0 22 22" fill="none" xmlns="http://www.w3.org/2000/svg">
<path fill-rule="evenodd" clip-rule="evenodd" d="M11 18C14.866 18 18 14.866 18 11C18 7.13401 14.866 4 11 4C7.13401 4 4 7.13401 4 11C4 14.866 7.13401 18 11 18ZM11 20C15.9706 20 20 15.9706 20 11C20 6.02944 15.9706 2 11 2C6.02944 2 2 6.02944 2 11C2 15.9706 6.02944 20 11 20Z" fill="#C2C3DA"/>
<path fill-rule="evenodd" clip-rule="evenodd" d="M11 13C12.1046 13 13 12.1046 13 11C13 9.89543 12.1046 9 11 9C9.89543 9 9 9.89543 9 11C9 12.1046 9.89543 13 11 13ZM11 15C13.2091 15 15 13.2091 15 11C15 8.79086 13.2091 7 11 7C8.79086 7 7 8.79086 7 11C7 13.2091 8.79086 15 11 15Z" fill="#C2C3DA"/>
<path fill-rule="evenodd" clip-rule="evenodd" d="M13 0V3H9V0H13Z" fill="#C2C3DA"/>
<path fill-rule="evenodd" clip-rule="evenodd" d="M20.5353 4.41421L18.414 6.53553L15.5856 3.70711L17.7069 1.58579L20.5353 4.41421Z" fill="#C2C3DA"/>
<path fill-rule="evenodd" clip-rule="evenodd" d="M6.53531 18.4142L4.41399 20.5355L1.58556 17.7071L3.70688 15.5858L6.53531 18.4142Z" fill="#C2C3DA"/>
<path fill-rule="evenodd" clip-rule="evenodd" d="M18.4142 15.5858L20.5355 17.7071L17.7071 20.5355L15.5858 18.4142L18.4142 15.5858Z" fill="#C2C3DA"/>
<path fill-rule="evenodd" clip-rule="evenodd" d="M4.41421 1.58579L6.53553 3.70711L3.70711 6.53553L1.58579 4.41421L4.41421 1.58579Z" fill="#C2C3DA"/>
<path fill-rule="evenodd" clip-rule="evenodd" d="M13 19V22H9V19H13Z" fill="#C2C3DA"/>
<path fill-rule="evenodd" clip-rule="evenodd" d="M19 9H22V13H19V9Z" fill="#C2C3DA"/>
<path fill-rule="evenodd" clip-rule="evenodd" d="M0 9H3L3 13H1.74846e-07L0 9Z" fill="#C2C3DA"/>
</svg>
