<svg width="14" height="17" viewBox="0 0 14 17" fill="none" xmlns="http://www.w3.org/2000/svg">
<path d="M9.25002 0.749023H4.75001V2.24902H9.25002V0.749023ZM6.25001 10.499H7.75002V5.99902H6.25001V10.499ZM12.2725 5.54152L13.3375 4.47652C13.015 4.09402 12.6625 3.73402 12.28 3.41902L11.215 4.48402C10.0525 3.55402 8.59002 2.99902 7.00002 2.99902C3.27251 2.99902 0.25 6.02152 0.25 9.74902C0.25 13.4765 3.26501 16.499 7.00002 16.499C10.735 16.499 13.75 13.4765 13.75 9.74902C13.75 8.15902 13.195 6.69652 12.2725 5.54152ZM7.00002 14.999C4.09751 14.999 1.75 12.6515 1.75 9.74902C1.75 6.84652 4.09751 4.49902 7.00002 4.49902C9.90252 4.49902 12.25 6.84652 12.25 9.74902C12.25 12.6515 9.90252 14.999 7.00002 14.999Z" fill="#9B9BAB"/>
</svg>
