<svg width="18" height="18" viewBox="0 0 18 18" fill="none" xmlns="http://www.w3.org/2000/svg">
<path d="M0.410156 16.7727V9.85818C0.410156 9.57845 0.553074 9.3181 0.789077 9.16792L4.91016 6.54541L8.97089 9.12952C9.2389 9.30007 9.58141 9.30007 9.84942 9.12952L13.9102 6.54541L17.2761 9.16337C17.4754 9.31838 17.592 9.55672 17.592 9.80921V16.7727C17.592 17.2246 17.2257 17.5909 16.7738 17.5909H1.22834C0.776469 17.5909 0.410156 17.2246 0.410156 16.7727Z" fill="#6D71F9"/>
<path fill-rule="evenodd" clip-rule="evenodd" d="M13.9327 6.04541L17.5262 8.84037C17.8251 9.07288 18 9.43039 18 9.80912V16.7726C18 17.4504 17.4505 17.9999 16.7727 17.9999H1.22727C0.549469 17.9999 0 17.4504 0 16.7726V9.8581C0 9.43849 0.214376 9.04797 0.568381 8.82269L4.90909 6.06042L9.18946 8.78429C9.32346 8.86957 9.49472 8.86957 9.62872 8.78429L13.9327 6.04541ZM4.90909 7.03022L1.00764 9.51296C0.889641 9.58805 0.818182 9.71823 0.818182 9.8581V16.7726C0.818182 16.9985 1.00134 17.1817 1.22727 17.1817H16.7727C16.9987 17.1817 17.1818 16.9985 17.1818 16.7726V9.80912C17.1818 9.68288 17.1235 9.56371 17.0239 9.4862L13.8855 7.04524L10.068 9.47456C9.66597 9.73039 9.15221 9.73039 8.7502 9.47456L4.90909 7.03022Z" fill="#6D71F9"/>
<path d="M4.08984 1.63636C4.08984 0.732625 4.82247 0 5.72621 0H12.2717C13.1754 0 13.908 0.732625 13.908 1.63636V10.6364C13.908 11.5401 13.1754 12.2727 12.2717 12.2727H5.72621C4.82247 12.2727 4.08984 11.5401 4.08984 10.6364V1.63636Z" fill="#6D71F9"/>
<path d="M8.17578 6.54541H9.81214V11.4545H8.17578V6.54541Z" fill="white"/>
<path d="M11.4531 8.18164L11.4531 9.818L6.54403 9.818L6.54403 8.18164L11.4531 8.18164Z" fill="white"/>
<path d="M3.27344 6.54541H4.09162V18H3.27344V6.54541Z" fill="white"/>
<path d="M13.9102 5.72705H14.7283V17.9998H13.9102V5.72705Z" fill="white"/>
</svg>
