<svg width="14" height="14" viewBox="0 0 14 14" fill="none" xmlns="http://www.w3.org/2000/svg">
<path d="M0.557617 13.0796V7.89376C0.557617 7.68396 0.664805 7.4887 0.841808 7.37606L3.93262 5.40918L6.97817 7.34726C7.17918 7.47517 7.43606 7.47517 7.63706 7.34726L10.6826 5.40918L13.2071 7.37265C13.3566 7.48891 13.444 7.66766 13.444 7.85703V13.0796C13.444 13.4185 13.1692 13.6933 12.8303 13.6933H1.17125C0.832352 13.6933 0.557617 13.4185 0.557617 13.0796Z" fill="#9B9BAB"/>
<path fill-rule="evenodd" clip-rule="evenodd" d="M10.6995 5.03418L13.3947 7.1304C13.6189 7.30478 13.75 7.57292 13.75 7.85696V13.0796C13.75 13.5879 13.3379 14 12.8295 14H1.17045C0.662101 14 0.25 13.5879 0.25 13.0796V7.89369C0.25 7.57899 0.410782 7.2861 0.676285 7.11714L3.93182 5.04544L7.14209 7.08834C7.2426 7.1523 7.37104 7.1523 7.47154 7.08834L10.6995 5.03418ZM3.93182 5.77279L1.00573 7.63484C0.917231 7.69116 0.863636 7.78879 0.863636 7.89369V13.0796C0.863636 13.249 1.001 13.3864 1.17045 13.3864H12.8295C12.999 13.3864 13.1364 13.249 13.1364 13.0796V7.85696C13.1364 7.76228 13.0926 7.6729 13.0179 7.61477L10.6641 5.78405L7.80099 7.60604C7.49948 7.79791 7.11416 7.79791 6.81265 7.60604L3.93182 5.77279Z" fill="#9B9BAB"/>
<path d="M3.31738 1.72727C3.31738 1.04947 3.86685 0.5 4.54466 0.5H9.45375C10.1316 0.5 10.681 1.04947 10.681 1.72727V8.47727C10.681 9.15508 10.1316 9.70455 9.45375 9.70455H4.54466C3.86685 9.70455 3.31738 9.15508 3.31738 8.47727V1.72727Z" fill="#9B9BAB"/>
<path d="M6.38184 5.40918H7.60911V9.091H6.38184V5.40918Z" fill="white"/>
<path d="M8.83984 6.63623L8.83984 7.8635L5.15803 7.8635L5.15803 6.63623L8.83984 6.63623Z" fill="white"/>
<path d="M2.70508 5.40918H3.31871V14.0001H2.70508V5.40918Z" fill="white"/>
<path d="M10.6826 4.79541H11.2963V14H10.6826V4.79541Z" fill="white"/>
</svg>
