<svg width="19" height="17" viewBox="0 0 19 17" fill="none" xmlns="http://www.w3.org/2000/svg">
<path d="M0.79248 16.6251H3.95915V7.12508H0.79248V16.6251ZM18.2091 7.91675C18.2091 7.04591 17.4966 6.33341 16.6258 6.33341H11.6304L12.3825 2.7155L12.4062 2.46216C12.4062 2.13758 12.2716 1.83675 12.0579 1.623L11.2187 0.791748L6.00956 6.00883C5.71665 6.29383 5.54248 6.68966 5.54248 7.12508V15.0417C5.54248 15.9126 6.25498 16.6251 7.12581 16.6251H14.2508C14.9079 16.6251 15.47 16.2292 15.7075 15.6592L18.0983 10.078C18.1696 9.89591 18.2091 9.70591 18.2091 9.50008V7.91675Z" fill="white"/>
</svg>