<svg width="15" height="17" viewBox="0 0 15 17" fill="none" xmlns="http://www.w3.org/2000/svg">
<path d="M12.25 11.73C11.6483 11.73 11.11 11.9675 10.6983 12.3396L5.05375 9.05421C5.09333 8.87212 5.125 8.69004 5.125 8.50004C5.125 8.31004 5.09333 8.12796 5.05375 7.94587L10.635 4.69212C11.0625 5.08796 11.6246 5.33337 12.25 5.33337C13.5642 5.33337 14.625 4.27254 14.625 2.95837C14.625 1.64421 13.5642 0.583374 12.25 0.583374C10.9358 0.583374 9.875 1.64421 9.875 2.95837C9.875 3.14837 9.90667 3.33046 9.94625 3.51254L4.365 6.76629C3.9375 6.37046 3.37542 6.12504 2.75 6.12504C1.43583 6.12504 0.375 7.18587 0.375 8.50004C0.375 9.81421 1.43583 10.875 2.75 10.875C3.37542 10.875 3.9375 10.6296 4.365 10.2338L10.0017 13.5271C9.96208 13.6934 9.93833 13.8675 9.93833 14.0417C9.93833 15.3163 10.9754 16.3534 12.25 16.3534C13.5246 16.3534 14.5617 15.3163 14.5617 14.0417C14.5617 12.7671 13.5246 11.73 12.25 11.73Z" fill="white"/>
</svg>