<svg width="24" height="24" viewBox="0 0 24 24" fill="none" xmlns="http://www.w3.org/2000/svg">
<path d="M4.2 7.6C3.70557 6.94076 4.17595 6 5 6H19C19.824 6 20.2944 6.94076 19.8 7.6L19 8.66667C18.3509 9.53215 18 10.5848 18 11.6667V20C18 21.1046 17.1046 22 16 22H8C6.89543 22 6 21.1046 6 20V11.6667C6 10.5848 5.64911 9.53215 5 8.66667L4.2 7.6Z" stroke="#6D71F9" stroke-width="2"/>
<path d="M14 17L14 11" stroke="#6D71F9" stroke-width="2" stroke-linecap="round" stroke-linejoin="round"/>
<path d="M10 17L10 11" stroke="#6D71F9" stroke-width="2" stroke-linecap="round" stroke-linejoin="round"/>
<path d="M16 6L15.4558 4.36754C15.1836 3.55086 14.4193 3 13.5585 3H10.4415C9.58066 3 8.81638 3.55086 8.54415 4.36754L8 6" stroke="#6D71F9" stroke-width="2" stroke-linecap="round"/>
</svg>
