<svg width="10" height="10" viewBox="0 0 10 10" fill="none" xmlns="http://www.w3.org/2000/svg">
<path d="M9.25946 1.91673L9.43624 1.73995L9.25946 1.56317L8.43696 0.740673L8.26018 0.563897L8.08341 0.740673L4.99935 3.82473L1.91529 0.740673L1.73852 0.563897L1.56174 0.740673L0.739239 1.56317L0.562462 1.73995L0.739239 1.91673L3.8233 5.00078L0.739239 8.08484L0.562462 8.26162L0.739239 8.43839L1.56174 9.26089L1.73852 9.43767L1.91529 9.26089L4.99935 6.17684L8.08341 9.26089L8.26018 9.43767L8.43696 9.26089L9.25946 8.43839L9.43624 8.26162L9.25946 8.08484L6.1754 5.00078L9.25946 1.91673Z" fill="#F96D6D" stroke="#F96D6D" stroke-width="0.5"/>
</svg>
