<svg width="14" height="14" viewBox="0 0 14 14" fill="none" xmlns="http://www.w3.org/2000/svg">
<path d="M7.70573 0.70561L6.29573 0.70561V6.29561L0.705732 6.29561V7.70561L6.29573 7.70561V13.2956L7.70573 13.2956L7.70573 7.70561L13.2957 7.70561V6.29561L7.70573 6.29561L7.70573 0.70561Z" fill="black" fill-opacity="0.5"/>
<path d="M7.95573 0.70561L7.95573 0.45561L7.70573 0.45561L6.29573 0.45561L6.04573 0.45561L6.04573 0.705611L6.04573 6.04561L0.705732 6.04561L0.455732 6.04561L0.455732 6.29561V7.70561L0.455732 7.95561L0.705732 7.95561L6.04573 7.95561L6.04573 13.2956L6.04573 13.5456L6.29573 13.5456L7.70573 13.5456L7.95573 13.5456L7.95573 13.2956V7.95561L13.2957 7.95561H13.5457V7.70561V6.29561V6.04561H13.2957L7.95573 6.04561V0.70561Z" stroke="black" stroke-opacity="0.5" stroke-width="0.5"/>
</svg>
