<svg width="25" height="12" viewBox="0 0 25 12" fill="none" xmlns="http://www.w3.org/2000/svg">
<path d="M11.8727 12H6C2.68629 12 0 9.31371 0 6C0 2.68629 2.68629 0 6 0H11.8727C15.1864 0 17.8727 2.68629 17.8727 6C17.8727 9.31371 15.1864 12 11.8727 12Z" fill="#E2E3FA"/>
<path d="M25 1V11L19.9091 8.5V3.5L25 1Z" fill="#E2E3FA"/>
<path d="M11.8727 12H6C2.68629 12 0 9.31371 0 6C0 2.68629 2.68629 0 6 0H11.8727C15.1864 0 17.8727 2.68629 17.8727 6C17.8727 9.31371 15.1864 12 11.8727 12Z" stroke="#E2E3FA"/>
<path d="M25 1V11L19.9091 8.5V3.5L25 1Z" stroke="#E2E3FA"/>
</svg>
