<svg width="10" height="10" viewBox="0 0 10 10" fill="none" xmlns="http://www.w3.org/2000/svg">
<path d="M9.25946 1.91676L9.43624 1.73998L9.25946 1.5632L8.43696 0.740704L8.26018 0.563927L8.08341 0.740704L4.99935 3.82476L1.91529 0.740704L1.73852 0.563927L1.56174 0.740704L0.739239 1.5632L0.562462 1.73998L0.739239 1.91676L3.8233 5.00081L0.739239 8.08487L0.562462 8.26165L0.739239 8.43842L1.56174 9.26092L1.73852 9.4377L1.91529 9.26092L4.99935 6.17687L8.08341 9.26092L8.26018 9.4377L8.43696 9.26092L9.25946 8.43842L9.43624 8.26165L9.25946 8.08487L6.1754 5.00081L9.25946 1.91676Z" fill="#F96D6D" stroke="#F96D6D" stroke-width="0.5"/>
</svg>
