<svg width="6" height="10" viewBox="0 0 6 10" fill="none" xmlns="http://www.w3.org/2000/svg">
<path d="M2.04492 6.38086C2.04492 5.83398 2.11133 5.39844 2.24414 5.07422C2.37695 4.75 2.61914 4.43164 2.9707 4.11914C3.32617 3.80273 3.5625 3.54688 3.67969 3.35156C3.79688 3.15234 3.85547 2.94336 3.85547 2.72461C3.85547 2.06445 3.55078 1.73438 2.94141 1.73438C2.65234 1.73438 2.41992 1.82422 2.24414 2.00391C2.07227 2.17969 1.98242 2.42383 1.97461 2.73633H0.275391C0.283203 1.99023 0.523438 1.40625 0.996094 0.984375C1.47266 0.5625 2.12109 0.351562 2.94141 0.351562C3.76953 0.351562 4.41211 0.552734 4.86914 0.955078C5.32617 1.35352 5.55469 1.91797 5.55469 2.64844C5.55469 2.98047 5.48047 3.29492 5.33203 3.5918C5.18359 3.88477 4.92383 4.21094 4.55273 4.57031L4.07812 5.02148C3.78125 5.30664 3.61133 5.64062 3.56836 6.02344L3.54492 6.38086H2.04492ZM1.875 8.17969C1.875 7.91797 1.96289 7.70312 2.13867 7.53516C2.31836 7.36328 2.54688 7.27734 2.82422 7.27734C3.10156 7.27734 3.32812 7.36328 3.50391 7.53516C3.68359 7.70312 3.77344 7.91797 3.77344 8.17969C3.77344 8.4375 3.68555 8.65039 3.50977 8.81836C3.33789 8.98633 3.10938 9.07031 2.82422 9.07031C2.53906 9.07031 2.30859 8.98633 2.13281 8.81836C1.96094 8.65039 1.875 8.4375 1.875 8.17969Z" fill="#9B9BAB"/>
</svg>
