<svg width="18" height="10" viewBox="0 0 18 10" fill="none" xmlns="http://www.w3.org/2000/svg">
<path d="M7.95928 9.81818H4.90909C2.19787 9.81818 0 7.62031 0 4.90909C0 2.19788 2.19787 0 4.90909 0H7.95928C10.6705 0 12.8684 2.19788 12.8684 4.90909C12.8684 7.62031 10.6705 9.81818 7.95928 9.81818Z" fill="#C2C3DA"/>
<path d="M18 0.818182V9L14.3345 6.95455V2.86364L18 0.818182Z" fill="#C2C3DA"/>
<path d="M7.95928 9.81818H4.90909C2.19787 9.81818 0 7.62031 0 4.90909C0 2.19788 2.19787 0 4.90909 0H7.95928C10.6705 0 12.8684 2.19788 12.8684 4.90909C12.8684 7.62031 10.6705 9.81818 7.95928 9.81818Z" stroke="#C2C3DA"/>
<path d="M18 0.818182V9L14.3345 6.95455V2.86364L18 0.818182Z" stroke="#C2C3DA"/>
</svg>
