<svg width="18" height="18" viewBox="0 0 18 18" fill="none" xmlns="http://www.w3.org/2000/svg">
<path d="M0.410156 16.7727V9.85825C0.410156 9.57851 0.553074 9.31816 0.789077 9.16798L4.91016 6.54547L8.97089 9.12958C9.2389 9.30013 9.58141 9.30013 9.84942 9.12958L13.9102 6.54547L17.2761 9.16343C17.4754 9.31844 17.592 9.55678 17.592 9.80927V16.7727C17.592 17.2246 17.2257 17.5909 16.7738 17.5909H1.22834C0.776469 17.5909 0.410156 17.2246 0.410156 16.7727Z" fill="#C2C3DA"/>
<path fill-rule="evenodd" clip-rule="evenodd" d="M13.9327 6.04553L17.5262 8.84049C17.8251 9.073 18 9.43052 18 9.80924V16.7727C18 17.4505 17.4505 18 16.7727 18H1.22727C0.549469 18 0 17.4505 0 16.7727V9.85822C0 9.43861 0.214376 9.04809 0.568381 8.82282L4.90909 6.06055L9.18946 8.78442C9.32346 8.86969 9.49472 8.86969 9.62872 8.78442L13.9327 6.04553ZM4.90909 7.03034L1.00764 9.51308C0.889641 9.58818 0.818182 9.71835 0.818182 9.85822V16.7727C0.818182 16.9987 1.00134 17.1818 1.22727 17.1818H16.7727C16.9987 17.1818 17.1818 16.9987 17.1818 16.7727V9.80924C17.1818 9.683 17.1235 9.56383 17.0239 9.48632L13.8855 7.04536L10.068 9.47468C9.66597 9.73051 9.15221 9.73051 8.7502 9.47468L4.90909 7.03034Z" fill="#C2C3DA"/>
<path d="M4.08984 1.63636C4.08984 0.732625 4.82247 0 5.72621 0H12.2717C13.1754 0 13.908 0.732625 13.908 1.63636V10.6364C13.908 11.5401 13.1754 12.2727 12.2717 12.2727H5.72621C4.82247 12.2727 4.08984 11.5401 4.08984 10.6364V1.63636Z" fill="#C2C3DA"/>
<path d="M8.17578 6.54547H9.81214V11.4546H8.17578V6.54547Z" fill="white"/>
<path d="M11.4531 8.18176L11.4531 9.81813L6.54403 9.81813L6.54403 8.18176L11.4531 8.18176Z" fill="white"/>
<path d="M3.27344 6.54547H4.09162V18H3.27344V6.54547Z" fill="white"/>
<path d="M13.9102 5.72729H14.7283V18H13.9102V5.72729Z" fill="white"/>
</svg>
