<svg width="18" height="21" viewBox="0 0 18 21" fill="none" xmlns="http://www.w3.org/2000/svg">
<path opacity="0.5" d="M11.9999 -0.000976562H5.99997V1.99902H11.9999V-0.000976562ZM7.99996 12.999H9.99995V6.99902H7.99996V12.999ZM16.0299 6.38902L17.4499 4.96902C17.0199 4.45902 16.5499 3.97902 16.0399 3.55902L14.6199 4.97902C13.0699 3.73902 11.1199 2.99902 8.99995 2.99902C4.02998 2.99902 0 7.02902 0 11.999C0 16.969 4.01998 20.999 8.99995 20.999C13.9799 20.999 17.9999 16.969 17.9999 11.999C17.9999 9.87902 17.2599 7.92902 16.0299 6.38902ZM8.99995 18.999C5.12997 18.999 1.99999 15.869 1.99999 11.999C1.99999 8.12902 5.12997 4.99902 8.99995 4.99902C12.8699 4.99902 15.9999 8.12902 15.9999 11.999C15.9999 15.869 12.8699 18.999 8.99995 18.999Z" fill="#272848"/>
</svg>
