<svg width="19" height="22" viewBox="0 0 19 22" fill="none" xmlns="http://www.w3.org/2000/svg">
<path d="M12.3749 0.957031H6.62497V2.8737H12.3749V0.957031ZM8.54163 13.4154H10.4583V7.66536H8.54163V13.4154ZM16.237 7.08078L17.5978 5.71995C17.1858 5.2312 16.7353 4.7712 16.2466 4.3687L14.8858 5.72953C13.4004 4.5412 11.5316 3.83203 9.49996 3.83203C4.73706 3.83203 0.875 7.69411 0.875 12.457C0.875 17.2199 4.72748 21.082 9.49996 21.082C14.2724 21.082 18.1249 17.2199 18.1249 12.457C18.1249 10.4254 17.4158 8.55661 16.237 7.08078ZM9.49996 19.1654C5.79123 19.1654 2.79166 16.1658 2.79166 12.457C2.79166 8.74828 5.79123 5.7487 9.49996 5.7487C13.2087 5.7487 16.2083 8.74828 16.2083 12.457C16.2083 16.1658 13.2087 19.1654 9.49996 19.1654Z" fill="#6D71F9"/>
</svg>
