<svg width="24" height="24" viewBox="0 0 24 24" fill="none" xmlns="http://www.w3.org/2000/svg">
<path d="M19.1778 6.58812L19.3545 6.41134L19.1778 6.23457L17.7678 4.82457L17.591 4.64779L17.4142 4.82457L12.001 10.2378L6.58775 4.82457L6.41098 4.64779L6.2342 4.82457L4.8242 6.23457L4.64742 6.41134L4.8242 6.58812L10.2374 12.0013L4.8242 17.4146L4.64742 17.5913L4.8242 17.7681L6.2342 19.1781L6.41098 19.3549L6.58775 19.1781L12.001 13.7649L17.4142 19.1781L17.591 19.3549L17.7678 19.1781L19.1778 17.7681L19.3545 17.5913L19.1778 17.4146L13.7645 12.0013L19.1778 6.58812Z" fill="#F96D6D" stroke="#F96D6D" stroke-width="0.5"/>
</svg>
