<svg width="96" height="59" viewBox="0 0 96 59" fill="none" xmlns="http://www.w3.org/2000/svg">
<path d="M5.22656 50.8359H3.35938V55H1.01562V43.625H5.24219C6.58594 43.625 7.6224 43.9245 8.35156 44.5234C9.08073 45.1224 9.44531 45.9688 9.44531 47.0625C9.44531 47.8385 9.27604 48.487 8.9375 49.0078C8.60417 49.5234 8.09635 49.9349 7.41406 50.2422L9.875 54.8906V55H7.35938L5.22656 50.8359ZM3.35938 48.9375H5.25C5.83854 48.9375 6.29427 48.7891 6.61719 48.4922C6.9401 48.1901 7.10156 47.776 7.10156 47.25C7.10156 46.7135 6.94792 46.2917 6.64062 45.9844C6.33854 45.6771 5.8724 45.5234 5.24219 45.5234H3.35938V48.9375ZM21.5981 50.0703H17.0981V53.1172H22.3794V55H14.7544V43.625H22.3638V45.5234H17.0981V48.2344H21.5981V50.0703ZM31.4775 52.1797L34.0556 43.625H36.665L32.7041 55H30.2588L26.3134 43.625H28.915L31.4775 52.1797ZM50.4975 49.5703C50.4975 50.6901 50.2996 51.6719 49.9038 52.5156C49.5079 53.3594 48.9402 54.0104 48.2006 54.4688C47.4663 54.9271 46.6225 55.1562 45.6694 55.1562C44.7267 55.1562 43.8855 54.9297 43.1459 54.4766C42.4064 54.0234 41.8334 53.3776 41.4272 52.5391C41.0209 51.6953 40.8152 50.7266 40.81 49.6328V49.0703C40.81 47.9505 41.0105 46.9661 41.4116 46.1172C41.8178 45.263 42.3881 44.6094 43.1225 44.1562C43.8621 43.6979 44.7058 43.4688 45.6538 43.4688C46.6017 43.4688 47.4428 43.6979 48.1772 44.1562C48.9168 44.6094 49.4871 45.263 49.8881 46.1172C50.2944 46.9661 50.4975 47.9479 50.4975 49.0625V49.5703ZM48.1225 49.0547C48.1225 47.862 47.909 46.9557 47.4819 46.3359C47.0548 45.7161 46.4454 45.4062 45.6538 45.4062C44.8673 45.4062 44.2605 45.7135 43.8334 46.3281C43.4064 46.9375 43.1902 47.8333 43.185 49.0156V49.5703C43.185 50.7318 43.3985 51.6328 43.8256 52.2734C44.2527 52.9141 44.8673 53.2344 45.6694 53.2344C46.4558 53.2344 47.06 52.9271 47.4819 52.3125C47.9038 51.6927 48.1173 50.7917 48.1225 49.6094V49.0547ZM58.7831 43.625L61.705 51.875L64.6113 43.625H67.6894V55H65.3378V51.8906L65.5722 46.5234L62.5019 55H60.8925L57.83 46.5312L58.0644 51.8906V55H55.7206V43.625H58.7831ZM80.1 50.0703H75.6V53.1172H80.8812V55H73.2562V43.625H80.8656V45.5234H75.6V48.2344H80.1V50.0703ZM85.7763 55V43.625H89.2763C90.2763 43.625 91.1695 43.8516 91.9559 44.3047C92.7476 44.7526 93.3648 45.3932 93.8075 46.2266C94.2502 47.0547 94.4716 47.9974 94.4716 49.0547V49.5781C94.4716 50.6354 94.2528 51.5755 93.8153 52.3984C93.383 53.2214 92.771 53.8594 91.9794 54.3125C91.1877 54.7656 90.2945 54.9948 89.2997 55H85.7763ZM88.12 45.5234V53.1172H89.2528C90.1695 53.1172 90.87 52.8177 91.3544 52.2188C91.8388 51.6198 92.0861 50.763 92.0966 49.6484V49.0469C92.0966 47.8906 91.857 47.0156 91.3778 46.4219C90.8986 45.8229 90.1981 45.5234 89.2763 45.5234H88.12Z" fill="white"/>
<path d="M38.5 13.9644C38.6284 12.3593 38.858 11.441 39.5 9.96436L35.5 14.9644L39.5 19.9644C38.858 18.4877 38.6284 17.5694 38.5 15.9644C38.4377 15.1858 38.4377 14.7429 38.5 13.9644Z" fill="white"/>
<path d="M40.5 20.9644C40.5 20.9644 39.8905 20.3549 39.5 19.9644M39.5 9.96436C38.858 11.441 38.6284 12.3593 38.5 13.9644C38.4377 14.7429 38.4377 15.1858 38.5 15.9644C38.6284 17.5694 38.858 18.4877 39.5 19.9644M39.5 9.96436C37.9379 11.917 35.5 14.9644 35.5 14.9644C35.5 14.9644 37.9379 18.0117 39.5 19.9644M39.5 9.96436C39.8905 9.57383 40.5 8.96436 40.5 8.96436" stroke="white"/>
<path d="M40.5 2.96432C37.1342 4.15224 30 12.9645 28 14.9645C30 16.9645 37.2667 25.8231 40.5 26.9643C49 29.9645 59 25.9642 59 14.9643C59 3.96446 49 -0.0356445 40.5 2.96432Z" stroke="white" stroke-width="3"/>
<path d="M60.5 5.96436L69 14.9644L60.5 23.9644C60.5 23.9644 62.6085 20.4648 63.2901 16.9644L65 14.9644L63.2901 12.9644C62.6085 9.4639 60.5 5.96436 60.5 5.96436Z" fill="white" stroke="white"/>
</svg>
