<svg width="64" height="58" viewBox="0 0 64 58" fill="none" xmlns="http://www.w3.org/2000/svg">
<path d="M35 3.5C35 5.433 34.3284 7 33.5 7C32.6716 7 32 5.433 32 3.5C32 1.567 32.6716 0 33.5 0C34.3284 0 35 1.567 35 3.5Z" fill="#BEBFC8"/>
<path d="M32.3481 4.03109C33.3146 5.70511 33.5165 7.39796 32.799 7.81218C32.0816 8.22639 30.7165 7.20511 29.75 5.53109C28.7835 3.85706 28.5816 2.16421 29.299 1.75C30.0165 1.33579 31.3816 2.35706 32.3481 4.03109Z" fill="#BEBFC8"/>
<path d="M30.8251 43.233C32.5047 44.668 31.5397 48.5545 28.6696 51.9137C25.7996 55.2728 22.1114 56.8327 20.4318 55.3976C18.7522 53.9626 19.7173 50.0762 22.5873 46.717C25.4573 43.3578 29.1455 41.798 30.8251 43.233Z" fill="#BEBFC8"/>
<path d="M32.4327 43.233C30.7531 44.668 31.7182 48.5545 34.5882 51.9137C37.4582 55.2728 41.1464 56.8327 42.826 55.3976C44.5056 53.9626 43.5406 50.0762 40.6705 46.717C37.8005 43.3578 34.1123 41.798 32.4327 43.233Z" fill="#BEBFC8"/>
<path d="M15.3302 37.5C12.0165 43.2395 7.39151 46.773 5.00005 45.3923C2.60859 44.0116 3.35621 38.2395 6.66992 32.5C9.98363 26.7605 14.6086 23.227 17 24.6077C19.3915 25.9884 18.6439 31.7605 15.3302 37.5Z" fill="#BEBFC8"/>
<path d="M48.6698 37.5C51.9835 43.2395 56.6085 46.773 59 45.3923C61.3914 44.0116 60.6438 38.2395 57.3301 32.5C54.0164 26.7605 49.3914 23.227 47 24.6077C44.6085 25.9884 45.3561 31.7605 48.6698 37.5Z" fill="#BEBFC8"/>
<path d="M52 29.5C52 43.031 43.0457 54 32 54C20.9543 54 12 43.031 12 29.5C12 15 18.25 5 32 5C45.75 5 52 15 52 29.5Z" fill="#D4D4DA"/>
<path d="M48 30.5C48 40.7173 40.8366 49 32 49C23.1634 49 16 40.7173 16 30.5C16 19.5511 25 6.99994 32 12C38 7 48 19.5511 48 30.5Z" fill="white"/>
<path d="M29 24C29 26.2091 27.2091 28 25 28C22.7909 28 21 26.2091 21 24C21 21.7909 22.7909 20 25 20C27.2091 20 29 21.7909 29 24Z" fill="#BEBFC8"/>
<path d="M27 25C27 26.1046 26.1046 27 25 27C23.8954 27 23 26.1046 23 25C23 23.8954 23.8954 23 25 23C26.1046 23 27 23.8954 27 25Z" fill="white"/>
<path d="M43 24C43 26.2091 41.2091 28 39 28C36.7909 28 35 26.2091 35 24C35 21.7909 36.7909 20 39 20C41.2091 20 43 21.7909 43 24Z" fill="#BEBFC8"/>
<path d="M41 25C41 26.1046 40.1046 27 39 27C37.8954 27 37 26.1046 37 25C37 23.8954 37.8954 23 39 23C40.1046 23 41 23.8954 41 25Z" fill="white"/>
<path d="M32.4326 34.25C32.2402 34.5833 31.7591 34.5833 31.5666 34.25L29.8346 31.25C29.6421 30.9167 29.8827 30.5 30.2676 30.5L33.7317 30.5C34.1166 30.5 34.3571 30.9167 34.1647 31.25L32.4326 34.25Z" fill="#BEBFC8"/>
</svg>
