<svg width="25" height="25" viewBox="0 0 25 25" fill="none" xmlns="http://www.w3.org/2000/svg">
<path fill-rule="evenodd" clip-rule="evenodd" d="M14.5821 6.24967L14.5821 4.16634L10.4155 4.16634L10.4155 6.24967L14.5821 6.24967ZM4.16541 8.333L4.16541 19.7913L20.8322 19.7913L20.8322 8.333L4.16541 8.333ZM20.8322 6.24967C21.9884 6.24967 22.9155 7.17676 22.9155 8.333L22.9155 19.7913C22.9155 20.9476 21.9884 21.8747 20.8322 21.8747L4.16541 21.8747C3.00915 21.8747 2.08206 20.9476 2.08206 19.7913L2.09248 8.333C2.09248 7.17676 3.00915 6.24967 4.16541 6.24967L8.33211 6.24967L8.33211 4.16634C8.33211 3.01009 9.25919 2.08301 10.4155 2.08301L14.5821 2.08301C15.7384 2.08301 16.6655 3.01009 16.6655 4.16634L16.6655 6.24967L20.8322 6.24967Z" fill="#6D71F9"/>
</svg>
