<svg width="25" height="24" viewBox="0 0 25 24" fill="none" xmlns="http://www.w3.org/2000/svg">
<path d="M17.6686 18.4829L18.4266 19.135L17.6686 18.4829ZM14.8733 21.1328L15.4709 21.9346L15.4709 21.9346L14.8733 21.1328ZM13.6405 21.9162L13.1907 21.0231L13.1907 21.0231L13.6405 21.9162ZM11.3595 21.9162L11.8093 21.0231L11.8093 21.0231L11.3595 21.9162ZM10.1267 21.1328L9.52907 21.9346H9.52907L10.1267 21.1328ZM7.33144 18.4829L8.08952 17.8307L7.33144 18.4829ZM12.5 0.75C7.1328 0.75 2.75 5.06043 2.75 10.4167H4.75C4.75 6.1852 8.21706 2.75 12.5 2.75V0.75ZM22.25 10.4167C22.25 5.06043 17.8672 0.75 12.5 0.75V2.75C16.7829 2.75 20.25 6.1852 20.25 10.4167H22.25ZM18.4266 19.135C20.3263 16.9269 22.25 13.7551 22.25 10.4167H20.25C20.25 13.0413 18.6963 15.7548 16.9105 17.8307L18.4266 19.135ZM15.4709 21.9346C16.408 21.236 17.4508 20.2694 18.4266 19.135L16.9105 17.8307C16.0213 18.8643 15.0846 19.728 14.2756 20.3311L15.4709 21.9346ZM14.0903 22.8094C14.535 22.5854 15.004 22.2826 15.4709 21.9346L14.2756 20.3311C13.8709 20.6328 13.5022 20.8662 13.1907 21.0231L14.0903 22.8094ZM12.5 23.25C13.1223 23.25 13.6996 23.0061 14.0903 22.8094L13.1907 21.0231C12.8724 21.1834 12.6402 21.25 12.5 21.25V23.25ZM10.9097 22.8094C11.3004 23.0061 11.8777 23.25 12.5 23.25V21.25C12.3598 21.25 12.1276 21.1834 11.8093 21.0231L10.9097 22.8094ZM9.52907 21.9346C9.99598 22.2826 10.465 22.5854 10.9098 22.8094L11.8093 21.0231C11.4978 20.8662 11.1291 20.6328 10.7244 20.3311L9.52907 21.9346ZM6.57336 19.135C7.54923 20.2694 8.592 21.236 9.52907 21.9346L10.7244 20.3311C9.91543 19.728 8.97868 18.8643 8.08952 17.8307L6.57336 19.135ZM2.75 10.4167C2.75 13.7551 4.67375 16.9269 6.57336 19.135L8.08952 17.8307C6.30369 15.7548 4.75 13.0413 4.75 10.4167H2.75ZM8.5 10C8.5 12.2091 10.2909 14 12.5 14V12C11.3954 12 10.5 11.1046 10.5 10H8.5ZM12.5 6C10.2909 6 8.5 7.79086 8.5 10H10.5C10.5 8.89543 11.3954 8 12.5 8V6ZM16.5 10C16.5 7.79086 14.7091 6 12.5 6V8C13.6046 8 14.5 8.89543 14.5 10H16.5ZM12.5 14C14.7091 14 16.5 12.2091 16.5 10H14.5C14.5 11.1046 13.6046 12 12.5 12V14Z" fill="#6D71F9"/>
</svg>
