<svg width="25" height="25" viewBox="0 0 25 25" fill="none" xmlns="http://www.w3.org/2000/svg">
<path d="M15.2791 3.125L9.72353 3.125L9.72353 4.97685L15.2791 4.97685L15.2791 3.125ZM11.5754 15.162L13.4272 15.162L13.4272 9.60648L11.5754 9.60648L11.5754 15.162ZM19.0106 9.04166L20.3254 7.72685C19.9273 7.25463 19.4921 6.81018 19.0198 6.42129L17.705 7.73611C16.2698 6.58796 14.4643 5.90278 12.5013 5.90278C7.89946 5.90278 4.16797 9.63425 4.16797 14.2361C4.16797 18.8379 7.8902 22.5694 12.5013 22.5694C17.1124 22.5694 20.8347 18.8379 20.8347 14.2361C20.8347 12.2731 20.1495 10.4676 19.0106 9.04166ZM12.5013 20.7176C8.91798 20.7176 6.01982 17.8194 6.01982 14.2361C6.01982 10.6528 8.91798 7.75463 12.5013 7.75463C16.0847 7.75463 18.9828 10.6528 18.9828 14.2361C18.9828 17.8194 16.0847 20.7176 12.5013 20.7176Z" fill="#6D71F9"/>
</svg>
