<svg width="25" height="25" viewBox="0 0 25 25" fill="none" xmlns="http://www.w3.org/2000/svg">
<path d="M12.5012 17.7077C13.6471 17.7077 14.5846 16.7702 14.5846 15.6243C14.5846 14.4785 13.6471 13.541 12.5012 13.541C11.3554 13.541 10.4179 14.4785 10.4179 15.6243C10.4179 16.7702 11.3554 17.7077 12.5012 17.7077ZM18.7513 8.33268H17.7096V6.24935C17.7096 3.37435 15.3763 1.04102 12.5012 1.04102C9.62623 1.04102 7.29289 3.37435 7.29289 6.24935H9.27206C9.27206 4.4681 10.72 3.02018 12.5012 3.02018C14.2825 3.02018 15.7304 4.4681 15.7304 6.24935V8.33268H6.25122C5.10538 8.33268 4.16788 9.27018 4.16788 10.416V20.8327C4.16788 21.9785 5.10538 22.916 6.25122 22.916H18.7513C19.8971 22.916 20.8346 21.9785 20.8346 20.8327V10.416C20.8346 9.27018 19.8971 8.33268 18.7513 8.33268ZM18.7513 20.8327H6.25122V10.416H18.7513V20.8327Z" fill="#6D71F9"/>
</svg>
