<svg width="25" height="25" viewBox="0 0 25 25" fill="none" xmlns="http://www.w3.org/2000/svg">
<path d="M13.4892 17.8276H10.3447V20.0835H7.88377V17.8276H5.88182V15.8452H7.88377V14.8003H5.88182V12.8179H7.88377V5.86475H13.3232C14.8922 5.86475 16.1455 6.2749 17.083 7.09521C18.0205 7.90902 18.4892 8.993 18.4892 10.3472C18.4892 11.7274 18.0433 12.8114 17.1514 13.5991C16.2594 14.3804 15.0192 14.7808 13.4306 14.8003H10.3447V15.8452H13.4892V17.8276ZM10.3447 12.8179H13.2842C14.1696 12.8179 14.8467 12.6128 15.3154 12.2026C15.7842 11.7925 16.0185 11.1805 16.0185 10.3667C16.0185 9.63753 15.7874 9.04183 15.3252 8.57959C14.8695 8.11735 14.2379 7.87646 13.4306 7.85693H10.3447V12.8179Z" fill="#6D71F9"/>
</svg>
