<svg width="387" height="67" viewBox="0 0 387 67" fill="none" xmlns="http://www.w3.org/2000/svg">
<path d="M2.01338 53.6629C2.1034 54.2078 2.61811 54.5766 3.16301 54.4866L12.0426 53.0195C12.5875 52.9295 12.9563 52.4148 12.8663 51.8699C12.7762 51.325 12.2615 50.9562 11.7166 51.0462L3.82362 52.3503L2.51957 44.4573C2.42954 43.9124 1.91483 43.5437 1.36994 43.6337C0.825039 43.7237 0.456287 44.2384 0.546316 44.7833L2.01338 53.6629ZM87.5 18C87.467 17.0005 87.4665 17.0006 87.4657 17.0006C87.4652 17.0006 87.4642 17.0006 87.4631 17.0007C87.4609 17.0007 87.4578 17.0009 87.4538 17.001C87.4458 17.0013 87.4341 17.0017 87.4187 17.0023C87.3881 17.0034 87.3431 17.0052 87.284 17.0076C87.1659 17.0126 86.9915 17.0204 86.7639 17.0319C86.3087 17.0551 85.6406 17.0933 84.7831 17.1538C83.0682 17.2749 80.5957 17.4853 77.5551 17.8428C71.4758 18.5575 63.1168 19.8614 53.9996 22.2193C35.8122 26.923 14.3975 35.8738 2.18709 52.9176L3.81292 54.0823C15.6025 37.6261 36.4378 28.827 54.5004 24.1556C63.5082 21.826 71.7742 20.5362 77.7886 19.8291C80.795 19.4756 83.2364 19.268 84.9239 19.1489C85.7676 19.0893 86.4227 19.0519 86.8655 19.0293C87.0869 19.0181 87.2551 19.0106 87.3674 19.0059C87.4235 19.0035 87.4656 19.0019 87.4934 19.0009C87.5072 19.0004 87.5175 19 87.5241 18.9998C87.5274 18.9996 87.5298 18.9996 87.5313 18.9995C87.5321 18.9995 87.5325 18.9995 87.5329 18.9995C87.5331 18.9995 87.533 18.9995 87.5 18Z" fill="white"/>
<path d="M108.524 9.539H107.172V8.57806H108.469C109.042 8.57806 109.506 8.49733 109.86 8.33588C110.214 8.17442 110.472 7.95046 110.633 7.664C110.795 7.37754 110.875 7.04681 110.875 6.67181C110.875 6.31244 110.787 5.98431 110.61 5.68744C110.433 5.38536 110.159 5.14577 109.789 4.96869C109.42 4.7864 108.943 4.69525 108.36 4.69525C107.922 4.69525 107.526 4.77858 107.172 4.94525C106.818 5.10671 106.537 5.33327 106.328 5.62494C106.12 5.9114 106.016 6.24213 106.016 6.61713H104.508C104.508 6.13275 104.61 5.69786 104.813 5.31244C105.016 4.92181 105.295 4.59108 105.649 4.32025C106.003 4.04421 106.412 3.83327 106.875 3.68744C107.344 3.54161 107.839 3.46869 108.36 3.46869C108.969 3.46869 109.521 3.539 110.016 3.67963C110.511 3.81504 110.935 4.01817 111.289 4.289C111.644 4.55983 111.914 4.89577 112.102 5.29681C112.289 5.69786 112.383 6.164 112.383 6.69525C112.383 7.08588 112.292 7.45306 112.11 7.79681C111.927 8.14056 111.667 8.44265 111.328 8.70306C110.99 8.96348 110.584 9.16921 110.11 9.32025C109.636 9.46608 109.107 9.539 108.524 9.539ZM107.172 8.87494H108.524C109.164 8.87494 109.735 8.94004 110.235 9.07025C110.735 9.20046 111.157 9.39056 111.5 9.64056C111.844 9.89056 112.105 10.2005 112.282 10.5703C112.464 10.9348 112.555 11.3541 112.555 11.8281C112.555 12.3593 112.451 12.8307 112.243 13.2421C112.039 13.6536 111.75 14.0025 111.375 14.289C111 14.5755 110.555 14.7916 110.039 14.9374C109.529 15.0833 108.969 15.1562 108.36 15.1562C107.87 15.1562 107.386 15.0937 106.907 14.9687C106.433 14.8385 106.003 14.6406 105.618 14.3749C105.232 14.1041 104.922 13.7604 104.688 13.3437C104.459 12.927 104.344 12.427 104.344 11.8437H105.852C105.852 12.2239 105.956 12.5729 106.164 12.8906C106.378 13.2083 106.672 13.4635 107.047 13.6562C107.422 13.8437 107.86 13.9374 108.36 13.9374C108.933 13.9374 109.417 13.8489 109.813 13.6718C110.214 13.4895 110.519 13.2421 110.727 12.9296C110.94 12.6119 111.047 12.2551 111.047 11.8593C111.047 11.5104 110.99 11.2083 110.875 10.9531C110.766 10.6926 110.602 10.4791 110.383 10.3124C110.17 10.1458 109.901 10.0234 109.578 9.94525C109.261 9.86192 108.891 9.82025 108.469 9.82025H107.172V8.87494ZM119.305 13.5546V9.20306C119.305 8.86973 119.237 8.58067 119.102 8.33588C118.972 8.08588 118.774 7.89317 118.508 7.75775C118.243 7.62233 117.914 7.55463 117.524 7.55463C117.159 7.55463 116.839 7.61713 116.563 7.74213C116.292 7.86713 116.078 8.03119 115.922 8.23431C115.771 8.43744 115.696 8.65619 115.696 8.89056H114.25C114.25 8.58848 114.328 8.289 114.485 7.99213C114.641 7.69525 114.865 7.42702 115.157 7.18744C115.453 6.94265 115.808 6.74994 116.219 6.60931C116.636 6.46348 117.099 6.39056 117.61 6.39056C118.224 6.39056 118.766 6.49473 119.235 6.70306C119.709 6.9114 120.078 7.2265 120.344 7.64838C120.615 8.06504 120.75 8.58848 120.75 9.21869V13.1562C120.75 13.4374 120.774 13.7369 120.821 14.0546C120.873 14.3723 120.948 14.6458 121.047 14.8749V14.9999H119.539C119.467 14.8333 119.409 14.6119 119.368 14.3359C119.326 14.0546 119.305 13.7942 119.305 13.5546ZM119.555 9.87494L119.571 10.8906H118.11C117.698 10.8906 117.331 10.9244 117.008 10.9921C116.685 11.0546 116.414 11.151 116.196 11.2812C115.977 11.4114 115.81 11.5755 115.696 11.7734C115.581 11.9661 115.524 12.1926 115.524 12.4531C115.524 12.7187 115.584 12.9609 115.703 13.1796C115.823 13.3984 116.003 13.5729 116.243 13.7031C116.487 13.8281 116.787 13.8906 117.141 13.8906C117.584 13.8906 117.974 13.7968 118.313 13.6093C118.651 13.4218 118.92 13.1926 119.118 12.9218C119.321 12.651 119.43 12.388 119.446 12.1328L120.063 12.8281C120.026 13.0468 119.927 13.289 119.766 13.5546C119.605 13.8203 119.388 14.0755 119.118 14.3203C118.852 14.5598 118.534 14.7604 118.164 14.9218C117.8 15.0781 117.388 15.1562 116.93 15.1562C116.357 15.1562 115.855 15.0442 115.422 14.8203C114.995 14.5963 114.662 14.2968 114.422 13.9218C114.188 13.5416 114.071 13.1171 114.071 12.6484C114.071 12.1953 114.159 11.7968 114.336 11.4531C114.513 11.1041 114.769 10.815 115.102 10.5859C115.435 10.3515 115.836 10.1744 116.305 10.0546C116.774 9.93483 117.297 9.87494 117.875 9.87494H119.555ZM128.657 6.54681V7.74213H124.383V6.54681H128.657ZM124.594 6.54681V14.9999H123.149V6.54681H124.594ZM129.938 6.54681V14.9999H128.485V6.54681H129.938ZM133.821 12.7109L137.719 6.54681H139.172V14.9999H137.719V8.83588L133.821 14.9999H132.383V6.54681H133.821V12.7109ZM144.875 13.9687C145.219 13.9687 145.537 13.8984 145.828 13.7578C146.12 13.6171 146.36 13.4244 146.547 13.1796C146.735 12.9296 146.842 12.6458 146.868 12.3281H148.243C148.217 12.8281 148.047 13.2942 147.735 13.7265C147.427 14.1536 147.024 14.4999 146.524 14.7656C146.024 15.026 145.474 15.1562 144.875 15.1562C144.24 15.1562 143.685 15.0442 143.211 14.8203C142.743 14.5963 142.352 14.289 142.039 13.8984C141.732 13.5078 141.5 13.0598 141.344 12.5546C141.193 12.0442 141.118 11.5051 141.118 10.9374V10.6093C141.118 10.0416 141.193 9.50515 141.344 8.99994C141.5 8.48952 141.732 8.039 142.039 7.64838C142.352 7.25775 142.743 6.95046 143.211 6.7265C143.685 6.50254 144.24 6.39056 144.875 6.39056C145.537 6.39056 146.115 6.52598 146.61 6.79681C147.105 7.06244 147.493 7.42702 147.774 7.89056C148.06 8.3489 148.217 8.86973 148.243 9.45306H146.868C146.842 9.10411 146.743 8.789 146.571 8.50775C146.404 8.2265 146.175 8.00254 145.883 7.83588C145.597 7.664 145.261 7.57806 144.875 7.57806C144.433 7.57806 144.06 7.66661 143.758 7.84369C143.461 8.01556 143.224 8.24994 143.047 8.54681C142.875 8.83848 142.75 9.164 142.672 9.52338C142.599 9.87754 142.563 10.2395 142.563 10.6093V10.9374C142.563 11.3072 142.599 11.6718 142.672 12.0312C142.745 12.3906 142.868 12.7161 143.039 13.0078C143.217 13.2994 143.453 13.5338 143.75 13.7109C144.052 13.8828 144.427 13.9687 144.875 13.9687ZM154.852 13.5546V9.20306C154.852 8.86973 154.784 8.58067 154.649 8.33588C154.519 8.08588 154.321 7.89317 154.055 7.75775C153.789 7.62233 153.461 7.55463 153.071 7.55463C152.706 7.55463 152.386 7.61713 152.11 7.74213C151.839 7.86713 151.625 8.03119 151.469 8.23431C151.318 8.43744 151.243 8.65619 151.243 8.89056H149.797C149.797 8.58848 149.875 8.289 150.032 7.99213C150.188 7.69525 150.412 7.42702 150.703 7.18744C151 6.94265 151.355 6.74994 151.766 6.60931C152.183 6.46348 152.646 6.39056 153.157 6.39056C153.771 6.39056 154.313 6.49473 154.782 6.70306C155.256 6.9114 155.625 7.2265 155.891 7.64838C156.162 8.06504 156.297 8.58848 156.297 9.21869V13.1562C156.297 13.4374 156.321 13.7369 156.368 14.0546C156.42 14.3723 156.495 14.6458 156.594 14.8749V14.9999H155.086C155.013 14.8333 154.956 14.6119 154.914 14.3359C154.873 14.0546 154.852 13.7942 154.852 13.5546ZM155.102 9.87494L155.118 10.8906H153.657C153.245 10.8906 152.878 10.9244 152.555 10.9921C152.232 11.0546 151.961 11.151 151.743 11.2812C151.524 11.4114 151.357 11.5755 151.243 11.7734C151.128 11.9661 151.071 12.1926 151.071 12.4531C151.071 12.7187 151.131 12.9609 151.25 13.1796C151.37 13.3984 151.55 13.5729 151.789 13.7031C152.034 13.8281 152.334 13.8906 152.688 13.8906C153.131 13.8906 153.521 13.7968 153.86 13.6093C154.198 13.4218 154.467 13.1926 154.664 12.9218C154.868 12.651 154.977 12.388 154.993 12.1328L155.61 12.8281C155.573 13.0468 155.474 13.289 155.313 13.5546C155.151 13.8203 154.935 14.0755 154.664 14.3203C154.399 14.5598 154.081 14.7604 153.711 14.9218C153.347 15.0781 152.935 15.1562 152.477 15.1562C151.904 15.1562 151.401 15.0442 150.969 14.8203C150.542 14.5963 150.209 14.2968 149.969 13.9218C149.735 13.5416 149.618 13.1171 149.618 12.6484C149.618 12.1953 149.706 11.7968 149.883 11.4531C150.06 11.1041 150.315 10.815 150.649 10.5859C150.982 10.3515 151.383 10.1744 151.852 10.0546C152.321 9.93483 152.844 9.87494 153.422 9.87494H155.102ZM161.891 6.54681V14.9999H160.438V6.54681H161.891ZM164.727 6.54681V7.71869H157.657V6.54681H164.727ZM167.336 9.45306H169.875C170.558 9.45306 171.133 9.57286 171.602 9.81244C172.071 10.0468 172.425 10.3723 172.664 10.789C172.909 11.2005 173.032 11.6692 173.032 12.1953C173.032 12.5859 172.964 12.9531 172.828 13.2968C172.693 13.6354 172.49 13.9322 172.219 14.1874C171.953 14.4426 171.623 14.6432 171.227 14.789C170.836 14.9296 170.386 14.9999 169.875 14.9999H166.282V6.54681H167.727V13.8124H169.875C170.292 13.8124 170.625 13.7369 170.875 13.5859C171.125 13.4348 171.305 13.2395 171.414 12.9999C171.524 12.7604 171.578 12.5104 171.578 12.2499C171.578 11.9947 171.524 11.7447 171.414 11.4999C171.305 11.2551 171.125 11.052 170.875 10.8906C170.625 10.7239 170.292 10.6406 169.875 10.6406H167.336V9.45306ZM178.219 13.9687C178.563 13.9687 178.881 13.8984 179.172 13.7578C179.464 13.6171 179.703 13.4244 179.891 13.1796C180.078 12.9296 180.185 12.6458 180.211 12.3281H181.586C181.56 12.8281 181.391 13.2942 181.078 13.7265C180.771 14.1536 180.368 14.4999 179.868 14.7656C179.368 15.026 178.818 15.1562 178.219 15.1562C177.584 15.1562 177.029 15.0442 176.555 14.8203C176.086 14.5963 175.696 14.289 175.383 13.8984C175.076 13.5078 174.844 13.0598 174.688 12.5546C174.537 12.0442 174.461 11.5051 174.461 10.9374V10.6093C174.461 10.0416 174.537 9.50515 174.688 8.99994C174.844 8.48952 175.076 8.039 175.383 7.64838C175.696 7.25775 176.086 6.95046 176.555 6.7265C177.029 6.50254 177.584 6.39056 178.219 6.39056C178.881 6.39056 179.459 6.52598 179.953 6.79681C180.448 7.06244 180.836 7.42702 181.118 7.89056C181.404 8.3489 181.56 8.86973 181.586 9.45306H180.211C180.185 9.10411 180.086 8.789 179.914 8.50775C179.748 8.2265 179.519 8.00254 179.227 7.83588C178.94 7.664 178.605 7.57806 178.219 7.57806C177.776 7.57806 177.404 7.66661 177.102 7.84369C176.805 8.01556 176.568 8.24994 176.391 8.54681C176.219 8.83848 176.094 9.164 176.016 9.52338C175.943 9.87754 175.907 10.2395 175.907 10.6093V10.9374C175.907 11.3072 175.943 11.6718 176.016 12.0312C176.089 12.3906 176.211 12.7161 176.383 13.0078C176.56 13.2994 176.797 13.5338 177.094 13.7109C177.396 13.8828 177.771 13.9687 178.219 13.9687ZM184.922 10.9687H186.485L184.039 14.9999H182.477L184.922 10.9687ZM186.133 6.54681H189.664V14.9999H188.219V7.71869H186.133C185.722 7.71869 185.386 7.789 185.125 7.92963C184.865 8.06504 184.675 8.24213 184.555 8.46088C184.435 8.67963 184.375 8.90619 184.375 9.14056C184.375 9.36973 184.43 9.59108 184.539 9.80463C184.649 10.013 184.821 10.1848 185.055 10.3203C185.289 10.4557 185.592 10.5234 185.961 10.5234H188.61V11.7109H185.961C185.477 11.7109 185.047 11.6458 184.672 11.5156C184.297 11.3854 183.98 11.2057 183.719 10.9765C183.459 10.7421 183.261 10.4687 183.125 10.1562C182.99 9.83848 182.922 9.49473 182.922 9.12494C182.922 8.75515 182.993 8.414 183.133 8.1015C183.279 7.789 183.487 7.51556 183.758 7.28119C184.034 7.04681 184.37 6.86713 184.766 6.74213C185.167 6.61192 185.623 6.54681 186.133 6.54681ZM197.532 6.54681V14.9999H196.086V6.54681H197.532ZM203.078 6.54681L199.071 11.3906H197.047L196.828 10.1249H198.485L201.321 6.54681H203.078ZM201.524 14.9999L198.414 11.1718L199.344 10.1249L203.36 14.9999H201.524ZM214.219 6.54681V7.74213H209.946V6.54681H214.219ZM210.157 6.54681V14.9999H208.711V6.54681H210.157ZM215.5 6.54681V14.9999H214.047V6.54681H215.5ZM219.266 8.17181V18.2499H217.813V6.54681H219.141L219.266 8.17181ZM224.961 10.7031V10.8671C224.961 11.4817 224.888 12.052 224.743 12.5781C224.597 13.0989 224.383 13.552 224.102 13.9374C223.826 14.3229 223.485 14.6223 223.078 14.8359C222.672 15.0494 222.206 15.1562 221.68 15.1562C221.144 15.1562 220.67 15.0676 220.258 14.8906C219.847 14.7135 219.498 14.4557 219.211 14.1171C218.925 13.7786 218.696 13.3723 218.524 12.8984C218.357 12.4244 218.243 11.8906 218.18 11.2968V10.4218C218.243 9.79681 218.36 9.23692 218.532 8.74213C218.703 8.24733 218.93 7.82546 219.211 7.4765C219.498 7.12233 219.844 6.85411 220.25 6.67181C220.657 6.48431 221.125 6.39056 221.657 6.39056C222.188 6.39056 222.659 6.49473 223.071 6.70306C223.482 6.90619 223.828 7.19786 224.11 7.57806C224.391 7.95827 224.602 8.414 224.743 8.94525C224.888 9.47129 224.961 10.0572 224.961 10.7031ZM223.508 10.8671V10.7031C223.508 10.2812 223.464 9.88536 223.375 9.51556C223.287 9.14056 223.149 8.81244 222.961 8.53119C222.779 8.24473 222.545 8.02077 222.258 7.85931C221.972 7.69265 221.631 7.60931 221.235 7.60931C220.87 7.60931 220.552 7.67181 220.282 7.79681C220.016 7.92181 219.789 8.09108 219.602 8.30463C219.414 8.51296 219.261 8.75254 219.141 9.02338C219.026 9.289 218.94 9.56504 218.883 9.8515V11.8749C218.987 12.2395 219.133 12.5833 219.321 12.9062C219.508 13.2239 219.758 13.4817 220.071 13.6796C220.383 13.8723 220.776 13.9687 221.25 13.9687C221.641 13.9687 221.977 13.888 222.258 13.7265C222.545 13.5598 222.779 13.3333 222.961 13.0468C223.149 12.7604 223.287 12.4322 223.375 12.0624C223.464 11.6874 223.508 11.289 223.508 10.8671ZM226.422 10.8671V10.6874C226.422 10.0781 226.511 9.51296 226.688 8.99213C226.865 8.46608 227.12 8.01036 227.453 7.62494C227.787 7.23431 228.19 6.93223 228.664 6.71869C229.138 6.49994 229.67 6.39056 230.258 6.39056C230.852 6.39056 231.386 6.49994 231.86 6.71869C232.339 6.93223 232.745 7.23431 233.078 7.62494C233.417 8.01036 233.675 8.46608 233.852 8.99213C234.029 9.51296 234.118 10.0781 234.118 10.6874V10.8671C234.118 11.4765 234.029 12.0416 233.852 12.5624C233.675 13.0833 233.417 13.539 233.078 13.9296C232.745 14.315 232.342 14.6171 231.868 14.8359C231.399 15.0494 230.868 15.1562 230.274 15.1562C229.68 15.1562 229.146 15.0494 228.672 14.8359C228.198 14.6171 227.792 14.315 227.453 13.9296C227.12 13.539 226.865 13.0833 226.688 12.5624C226.511 12.0416 226.422 11.4765 226.422 10.8671ZM227.868 10.6874V10.8671C227.868 11.289 227.917 11.6874 228.016 12.0624C228.115 12.4322 228.263 12.7604 228.461 13.0468C228.664 13.3333 228.917 13.5598 229.219 13.7265C229.521 13.888 229.873 13.9687 230.274 13.9687C230.67 13.9687 231.016 13.888 231.313 13.7265C231.615 13.5598 231.865 13.3333 232.063 13.0468C232.261 12.7604 232.409 12.4322 232.508 12.0624C232.612 11.6874 232.664 11.289 232.664 10.8671V10.6874C232.664 10.2708 232.612 9.87754 232.508 9.50775C232.409 9.13275 232.258 8.80202 232.055 8.51556C231.857 8.2239 231.607 7.99473 231.305 7.82806C231.008 7.6614 230.659 7.57806 230.258 7.57806C229.862 7.57806 229.513 7.6614 229.211 7.82806C228.914 7.99473 228.664 8.2239 228.461 8.51556C228.263 8.80202 228.115 9.13275 228.016 9.50775C227.917 9.87754 227.868 10.2708 227.868 10.6874ZM239.899 11.2812H237.125L237.11 10.1249H239.375C239.823 10.1249 240.196 10.0807 240.493 9.99213C240.795 9.90358 241.021 9.77077 241.172 9.59369C241.323 9.41661 241.399 9.19786 241.399 8.93744C241.399 8.73431 241.355 8.55723 241.266 8.40619C241.183 8.24994 241.055 8.12233 240.883 8.02338C240.711 7.91921 240.498 7.84369 240.243 7.79681C239.993 7.74473 239.698 7.71869 239.36 7.71869H237.508V14.9999H236.063V6.54681H239.36C239.896 6.54681 240.378 6.59369 240.805 6.68744C241.237 6.78119 241.605 6.92442 241.907 7.11713C242.214 7.30463 242.448 7.54421 242.61 7.83588C242.771 8.12754 242.852 8.47129 242.852 8.86713C242.852 9.12233 242.8 9.36452 242.696 9.59369C242.592 9.82286 242.438 10.026 242.235 10.2031C242.032 10.3801 241.782 10.526 241.485 10.6406C241.188 10.7499 240.847 10.8203 240.461 10.8515L239.899 11.2812ZM239.899 14.9999H236.602L237.321 13.8281H239.899C240.3 13.8281 240.633 13.7786 240.899 13.6796C241.164 13.5755 241.362 13.4296 241.493 13.2421C241.628 13.0494 241.696 12.8203 241.696 12.5546C241.696 12.289 241.628 12.0624 241.493 11.8749C241.362 11.6822 241.164 11.5364 240.899 11.4374C240.633 11.3333 240.3 11.2812 239.899 11.2812H237.703L237.719 10.1249H240.461L240.985 10.5624C241.448 10.5989 241.842 10.7135 242.164 10.9062C242.487 11.0989 242.732 11.3437 242.899 11.6406C243.065 11.9322 243.149 12.2499 243.149 12.5937C243.149 12.9895 243.073 13.3385 242.922 13.6406C242.776 13.9426 242.563 14.1953 242.282 14.3984C242 14.5963 241.659 14.7473 241.258 14.8515C240.857 14.9505 240.404 14.9999 239.899 14.9999ZM248.594 15.1562C248.006 15.1562 247.472 15.0572 246.993 14.8593C246.519 14.6562 246.11 14.3723 245.766 14.0078C245.427 13.6432 245.167 13.2109 244.985 12.7109C244.802 12.2109 244.711 11.664 244.711 11.0703V10.7421C244.711 10.0546 244.813 9.44265 245.016 8.90619C245.219 8.36452 245.495 7.90619 245.844 7.53119C246.193 7.15619 246.589 6.87233 247.032 6.67963C247.474 6.48692 247.933 6.39056 248.407 6.39056C249.011 6.39056 249.532 6.49473 249.969 6.70306C250.412 6.9114 250.774 7.20306 251.055 7.57806C251.336 7.94786 251.545 8.38536 251.68 8.89056C251.815 9.39056 251.883 9.93744 251.883 10.5312V11.1796H245.571V9.99994H250.438V9.89056C250.417 9.51556 250.339 9.15098 250.203 8.79681C250.073 8.44265 249.865 8.15098 249.578 7.92181C249.292 7.69265 248.901 7.57806 248.407 7.57806C248.078 7.57806 247.776 7.64838 247.5 7.789C247.224 7.92442 246.987 8.12754 246.789 8.39838C246.592 8.66921 246.438 8.99994 246.328 9.39056C246.219 9.78119 246.164 10.2317 246.164 10.7421V11.0703C246.164 11.4713 246.219 11.8489 246.328 12.2031C246.443 12.552 246.607 12.8593 246.821 13.1249C247.039 13.3906 247.302 13.5989 247.61 13.7499C247.922 13.901 248.276 13.9765 248.672 13.9765C249.183 13.9765 249.615 13.8723 249.969 13.664C250.323 13.4557 250.633 13.177 250.899 12.8281L251.774 13.5234C251.592 13.7994 251.36 14.0624 251.078 14.3124C250.797 14.5624 250.451 14.7656 250.039 14.9218C249.633 15.0781 249.151 15.1562 248.594 15.1562ZM255.016 8.17181V18.2499H253.563V6.54681H254.891L255.016 8.17181ZM260.711 10.7031V10.8671C260.711 11.4817 260.638 12.052 260.493 12.5781C260.347 13.0989 260.133 13.552 259.852 13.9374C259.576 14.3229 259.235 14.6223 258.828 14.8359C258.422 15.0494 257.956 15.1562 257.43 15.1562C256.894 15.1562 256.42 15.0676 256.008 14.8906C255.597 14.7135 255.248 14.4557 254.961 14.1171C254.675 13.7786 254.446 13.3723 254.274 12.8984C254.107 12.4244 253.993 11.8906 253.93 11.2968V10.4218C253.993 9.79681 254.11 9.23692 254.282 8.74213C254.453 8.24733 254.68 7.82546 254.961 7.4765C255.248 7.12233 255.594 6.85411 256 6.67181C256.407 6.48431 256.875 6.39056 257.407 6.39056C257.938 6.39056 258.409 6.49473 258.821 6.70306C259.232 6.90619 259.578 7.19786 259.86 7.57806C260.141 7.95827 260.352 8.414 260.493 8.94525C260.638 9.47129 260.711 10.0572 260.711 10.7031ZM259.258 10.8671V10.7031C259.258 10.2812 259.214 9.88536 259.125 9.51556C259.037 9.14056 258.899 8.81244 258.711 8.53119C258.529 8.24473 258.295 8.02077 258.008 7.85931C257.722 7.69265 257.381 7.60931 256.985 7.60931C256.62 7.60931 256.302 7.67181 256.032 7.79681C255.766 7.92181 255.539 8.09108 255.352 8.30463C255.164 8.51296 255.011 8.75254 254.891 9.02338C254.776 9.289 254.69 9.56504 254.633 9.8515V11.8749C254.737 12.2395 254.883 12.5833 255.071 12.9062C255.258 13.2239 255.508 13.4817 255.821 13.6796C256.133 13.8723 256.526 13.9687 257 13.9687C257.391 13.9687 257.727 13.888 258.008 13.7265C258.295 13.5598 258.529 13.3333 258.711 13.0468C258.899 12.7604 259.037 12.4322 259.125 12.0624C259.214 11.6874 259.258 11.289 259.258 10.8671ZM266.063 15.1562C265.474 15.1562 264.94 15.0572 264.461 14.8593C263.987 14.6562 263.578 14.3723 263.235 14.0078C262.896 13.6432 262.636 13.2109 262.453 12.7109C262.271 12.2109 262.18 11.664 262.18 11.0703V10.7421C262.18 10.0546 262.282 9.44265 262.485 8.90619C262.688 8.36452 262.964 7.90619 263.313 7.53119C263.662 7.15619 264.058 6.87233 264.5 6.67963C264.943 6.48692 265.401 6.39056 265.875 6.39056C266.48 6.39056 267 6.49473 267.438 6.70306C267.881 6.9114 268.243 7.20306 268.524 7.57806C268.805 7.94786 269.013 8.38536 269.149 8.89056C269.284 9.39056 269.352 9.93744 269.352 10.5312V11.1796H263.039V9.99994H267.907V9.89056C267.886 9.51556 267.808 9.15098 267.672 8.79681C267.542 8.44265 267.334 8.15098 267.047 7.92181C266.761 7.69265 266.37 7.57806 265.875 7.57806C265.547 7.57806 265.245 7.64838 264.969 7.789C264.693 7.92442 264.456 8.12754 264.258 8.39838C264.06 8.66921 263.907 8.99994 263.797 9.39056C263.688 9.78119 263.633 10.2317 263.633 10.7421V11.0703C263.633 11.4713 263.688 11.8489 263.797 12.2031C263.912 12.552 264.076 12.8593 264.289 13.1249C264.508 13.3906 264.771 13.5989 265.078 13.7499C265.391 13.901 265.745 13.9765 266.141 13.9765C266.651 13.9765 267.084 13.8723 267.438 13.664C267.792 13.4557 268.102 13.177 268.368 12.8281L269.243 13.5234C269.06 13.7994 268.828 14.0624 268.547 14.3124C268.266 14.5624 267.92 14.7656 267.508 14.9218C267.102 15.0781 266.62 15.1562 266.063 15.1562ZM276.774 10.2109V11.3828H272.305V10.2109H276.774ZM272.61 6.54681V14.9999H271.164V6.54681H272.61ZM277.946 6.54681V14.9999H276.493V6.54681H277.946ZM286.008 10.2109V11.3828H281.539V10.2109H286.008ZM281.844 6.54681V14.9999H280.399V6.54681H281.844ZM287.18 6.54681V14.9999H285.727V6.54681H287.18ZM289.125 10.8671V10.6874C289.125 10.0781 289.214 9.51296 289.391 8.99213C289.568 8.46608 289.823 8.01036 290.157 7.62494C290.49 7.23431 290.894 6.93223 291.368 6.71869C291.842 6.49994 292.373 6.39056 292.961 6.39056C293.555 6.39056 294.089 6.49994 294.563 6.71869C295.042 6.93223 295.448 7.23431 295.782 7.62494C296.12 8.01036 296.378 8.46608 296.555 8.99213C296.732 9.51296 296.821 10.0781 296.821 10.6874V10.8671C296.821 11.4765 296.732 12.0416 296.555 12.5624C296.378 13.0833 296.12 13.539 295.782 13.9296C295.448 14.315 295.045 14.6171 294.571 14.8359C294.102 15.0494 293.571 15.1562 292.977 15.1562C292.383 15.1562 291.849 15.0494 291.375 14.8359C290.901 14.6171 290.495 14.315 290.157 13.9296C289.823 13.539 289.568 13.0833 289.391 12.5624C289.214 12.0416 289.125 11.4765 289.125 10.8671ZM290.571 10.6874V10.8671C290.571 11.289 290.62 11.6874 290.719 12.0624C290.818 12.4322 290.967 12.7604 291.164 13.0468C291.368 13.3333 291.62 13.5598 291.922 13.7265C292.224 13.888 292.576 13.9687 292.977 13.9687C293.373 13.9687 293.719 13.888 294.016 13.7265C294.318 13.5598 294.568 13.3333 294.766 13.0468C294.964 12.7604 295.112 12.4322 295.211 12.0624C295.315 11.6874 295.368 11.289 295.368 10.8671V10.6874C295.368 10.2708 295.315 9.87754 295.211 9.50775C295.112 9.13275 294.961 8.80202 294.758 8.51556C294.56 8.2239 294.31 7.99473 294.008 7.82806C293.711 7.6614 293.362 7.57806 292.961 7.57806C292.565 7.57806 292.217 7.6614 291.914 7.82806C291.618 7.99473 291.368 8.2239 291.164 8.51556C290.967 8.80202 290.818 9.13275 290.719 9.50775C290.62 9.87754 290.571 10.2708 290.571 10.6874ZM303.493 13.0781L306.368 6.54681H307.758L303.993 14.9999H302.993L299.243 6.54681H300.633L303.493 13.0781ZM300.211 6.54681V14.9999H298.766V6.54681H300.211ZM306.727 14.9999V6.54681H308.18V14.9999H306.727ZM312.883 14.1249L315.235 6.54681H316.782L313.391 16.3046C313.313 16.513 313.209 16.7369 313.078 16.9765C312.953 17.2213 312.792 17.4531 312.594 17.6718C312.396 17.8906 312.157 18.0676 311.875 18.2031C311.599 18.3437 311.269 18.414 310.883 18.414C310.769 18.414 310.623 18.3984 310.446 18.3671C310.269 18.3359 310.144 18.3098 310.071 18.289L310.063 17.1171C310.105 17.1223 310.17 17.1275 310.258 17.1328C310.352 17.1432 310.417 17.1484 310.453 17.1484C310.782 17.1484 311.06 17.1041 311.289 17.0156C311.519 16.9322 311.711 16.789 311.868 16.5859C312.029 16.388 312.167 16.1145 312.282 15.7656L312.883 14.1249ZM311.157 6.54681L313.352 13.1093L313.727 14.6328L312.688 15.164L309.578 6.54681H311.157ZM326.024 11.2812H323.25L323.235 10.1249H325.5C325.948 10.1249 326.321 10.0807 326.618 9.99213C326.92 9.90358 327.146 9.77077 327.297 9.59369C327.448 9.41661 327.524 9.19786 327.524 8.93744C327.524 8.73431 327.48 8.55723 327.391 8.40619C327.308 8.24994 327.18 8.12233 327.008 8.02338C326.836 7.91921 326.623 7.84369 326.368 7.79681C326.118 7.74473 325.823 7.71869 325.485 7.71869H323.633V14.9999H322.188V6.54681H325.485C326.021 6.54681 326.503 6.59369 326.93 6.68744C327.362 6.78119 327.73 6.92442 328.032 7.11713C328.339 7.30463 328.573 7.54421 328.735 7.83588C328.896 8.12754 328.977 8.47129 328.977 8.86713C328.977 9.12233 328.925 9.36452 328.821 9.59369C328.717 9.82286 328.563 10.026 328.36 10.2031C328.157 10.3801 327.907 10.526 327.61 10.6406C327.313 10.7499 326.972 10.8203 326.586 10.8515L326.024 11.2812ZM326.024 14.9999H322.727L323.446 13.8281H326.024C326.425 13.8281 326.758 13.7786 327.024 13.6796C327.289 13.5755 327.487 13.4296 327.618 13.2421C327.753 13.0494 327.821 12.8203 327.821 12.5546C327.821 12.289 327.753 12.0624 327.618 11.8749C327.487 11.6822 327.289 11.5364 327.024 11.4374C326.758 11.3333 326.425 11.2812 326.024 11.2812H323.828L323.844 10.1249H326.586L327.11 10.5624C327.573 10.5989 327.967 10.7135 328.289 10.9062C328.612 11.0989 328.857 11.3437 329.024 11.6406C329.19 11.9322 329.274 12.2499 329.274 12.5937C329.274 12.9895 329.198 13.3385 329.047 13.6406C328.901 13.9426 328.688 14.1953 328.407 14.3984C328.125 14.5963 327.784 14.7473 327.383 14.8515C326.982 14.9505 326.529 14.9999 326.024 14.9999ZM332.657 8.17181V18.2499H331.203V6.54681H332.532L332.657 8.17181ZM338.352 10.7031V10.8671C338.352 11.4817 338.279 12.052 338.133 12.5781C337.987 13.0989 337.774 13.552 337.493 13.9374C337.217 14.3229 336.875 14.6223 336.469 14.8359C336.063 15.0494 335.597 15.1562 335.071 15.1562C334.534 15.1562 334.06 15.0676 333.649 14.8906C333.237 14.7135 332.888 14.4557 332.602 14.1171C332.315 13.7786 332.086 13.3723 331.914 12.8984C331.748 12.4244 331.633 11.8906 331.571 11.2968V10.4218C331.633 9.79681 331.75 9.23692 331.922 8.74213C332.094 8.24733 332.321 7.82546 332.602 7.4765C332.888 7.12233 333.235 6.85411 333.641 6.67181C334.047 6.48431 334.516 6.39056 335.047 6.39056C335.578 6.39056 336.05 6.49473 336.461 6.70306C336.873 6.90619 337.219 7.19786 337.5 7.57806C337.782 7.95827 337.993 8.414 338.133 8.94525C338.279 9.47129 338.352 10.0572 338.352 10.7031ZM336.899 10.8671V10.7031C336.899 10.2812 336.855 9.88536 336.766 9.51556C336.677 9.14056 336.539 8.81244 336.352 8.53119C336.17 8.24473 335.935 8.02077 335.649 7.85931C335.362 7.69265 335.021 7.60931 334.625 7.60931C334.261 7.60931 333.943 7.67181 333.672 7.79681C333.407 7.92181 333.18 8.09108 332.993 8.30463C332.805 8.51296 332.651 8.75254 332.532 9.02338C332.417 9.289 332.331 9.56504 332.274 9.8515V11.8749C332.378 12.2395 332.524 12.5833 332.711 12.9062C332.899 13.2239 333.149 13.4817 333.461 13.6796C333.774 13.8723 334.167 13.9687 334.641 13.9687C335.032 13.9687 335.368 13.888 335.649 13.7265C335.935 13.5598 336.17 13.3333 336.352 13.0468C336.539 12.7604 336.677 12.4322 336.766 12.0624C336.855 11.6874 336.899 11.289 336.899 10.8671ZM345.18 13.5546V9.20306C345.18 8.86973 345.112 8.58067 344.977 8.33588C344.847 8.08588 344.649 7.89317 344.383 7.75775C344.118 7.62233 343.789 7.55463 343.399 7.55463C343.034 7.55463 342.714 7.61713 342.438 7.74213C342.167 7.86713 341.953 8.03119 341.797 8.23431C341.646 8.43744 341.571 8.65619 341.571 8.89056H340.125C340.125 8.58848 340.203 8.289 340.36 7.99213C340.516 7.69525 340.74 7.42702 341.032 7.18744C341.328 6.94265 341.683 6.74994 342.094 6.60931C342.511 6.46348 342.974 6.39056 343.485 6.39056C344.099 6.39056 344.641 6.49473 345.11 6.70306C345.584 6.9114 345.953 7.2265 346.219 7.64838C346.49 8.06504 346.625 8.58848 346.625 9.21869V13.1562C346.625 13.4374 346.649 13.7369 346.696 14.0546C346.748 14.3723 346.823 14.6458 346.922 14.8749V14.9999H345.414C345.342 14.8333 345.284 14.6119 345.243 14.3359C345.201 14.0546 345.18 13.7942 345.18 13.5546ZM345.43 9.87494L345.446 10.8906H343.985C343.573 10.8906 343.206 10.9244 342.883 10.9921C342.56 11.0546 342.289 11.151 342.071 11.2812C341.852 11.4114 341.685 11.5755 341.571 11.7734C341.456 11.9661 341.399 12.1926 341.399 12.4531C341.399 12.7187 341.459 12.9609 341.578 13.1796C341.698 13.3984 341.878 13.5729 342.118 13.7031C342.362 13.8281 342.662 13.8906 343.016 13.8906C343.459 13.8906 343.849 13.7968 344.188 13.6093C344.526 13.4218 344.795 13.1926 344.993 12.9218C345.196 12.651 345.305 12.388 345.321 12.1328L345.938 12.8281C345.901 13.0468 345.802 13.289 345.641 13.5546C345.48 13.8203 345.263 14.0755 344.993 14.3203C344.727 14.5598 344.409 14.7604 344.039 14.9218C343.675 15.0781 343.263 15.1562 342.805 15.1562C342.232 15.1562 341.73 15.0442 341.297 14.8203C340.87 14.5963 340.537 14.2968 340.297 13.9218C340.063 13.5416 339.946 13.1171 339.946 12.6484C339.946 12.1953 340.034 11.7968 340.211 11.4531C340.388 11.1041 340.644 10.815 340.977 10.5859C341.31 10.3515 341.711 10.1744 342.18 10.0546C342.649 9.93483 343.172 9.87494 343.75 9.87494H345.43ZM355.274 6.54681V14.9999H353.828V6.54681H355.274ZM354.782 10.4296V11.6171C354.49 11.7265 354.193 11.8255 353.891 11.914C353.594 11.9973 353.279 12.065 352.946 12.1171C352.618 12.164 352.261 12.1874 351.875 12.1874C351.209 12.1874 350.631 12.0729 350.141 11.8437C349.651 11.6093 349.274 11.2578 349.008 10.789C348.743 10.315 348.61 9.71869 348.61 8.99994V6.53119H350.055V8.99994C350.055 9.46869 350.125 9.8489 350.266 10.1406C350.407 10.4322 350.612 10.6484 350.883 10.789C351.154 10.9244 351.485 10.9921 351.875 10.9921C352.25 10.9921 352.602 10.9687 352.93 10.9218C353.263 10.8697 353.581 10.802 353.883 10.7187C354.19 10.6354 354.49 10.539 354.782 10.4296ZM359.977 14.1249L362.328 6.54681H363.875L360.485 16.3046C360.407 16.513 360.302 16.7369 360.172 16.9765C360.047 17.2213 359.886 17.4531 359.688 17.6718C359.49 17.8906 359.25 18.0676 358.969 18.2031C358.693 18.3437 358.362 18.414 357.977 18.414C357.862 18.414 357.717 18.3984 357.539 18.3671C357.362 18.3359 357.237 18.3098 357.164 18.289L357.157 17.1171C357.198 17.1223 357.263 17.1275 357.352 17.1328C357.446 17.1432 357.511 17.1484 357.547 17.1484C357.875 17.1484 358.154 17.1041 358.383 17.0156C358.612 16.9322 358.805 16.789 358.961 16.5859C359.123 16.388 359.261 16.1145 359.375 15.7656L359.977 14.1249ZM358.25 6.54681L360.446 13.1093L360.821 14.6328L359.782 15.164L356.672 6.54681H358.25ZM370.711 12.7109L374.61 6.54681H376.063V14.9999H374.61V8.83588L370.711 14.9999H369.274V6.54681H370.711V12.7109ZM163.422 25.5468V33.9999H161.977V25.5468H163.422ZM168.969 25.5468L164.961 30.3906H162.938L162.719 29.1249H164.375L167.211 25.5468H168.969ZM167.414 33.9999L164.305 30.1718L165.235 29.1249L169.25 33.9999H167.414ZM169.953 29.8671V29.6874C169.953 29.0781 170.042 28.513 170.219 27.9921C170.396 27.4661 170.651 27.0104 170.985 26.6249C171.318 26.2343 171.722 25.9322 172.196 25.7187C172.67 25.4999 173.201 25.3906 173.789 25.3906C174.383 25.3906 174.917 25.4999 175.391 25.7187C175.87 25.9322 176.276 26.2343 176.61 26.6249C176.948 27.0104 177.206 27.4661 177.383 27.9921C177.56 28.513 177.649 29.0781 177.649 29.6874V29.8671C177.649 30.4765 177.56 31.0416 177.383 31.5624C177.206 32.0833 176.948 32.539 176.61 32.9296C176.276 33.315 175.873 33.6171 175.399 33.8359C174.93 34.0494 174.399 34.1562 173.805 34.1562C173.211 34.1562 172.677 34.0494 172.203 33.8359C171.73 33.6171 171.323 33.315 170.985 32.9296C170.651 32.539 170.396 32.0833 170.219 31.5624C170.042 31.0416 169.953 30.4765 169.953 29.8671ZM171.399 29.6874V29.8671C171.399 30.289 171.448 30.6874 171.547 31.0624C171.646 31.4322 171.795 31.7604 171.993 32.0468C172.196 32.3333 172.448 32.5598 172.75 32.7265C173.052 32.888 173.404 32.9687 173.805 32.9687C174.201 32.9687 174.547 32.888 174.844 32.7265C175.146 32.5598 175.396 32.3333 175.594 32.0468C175.792 31.7604 175.94 31.4322 176.039 31.0624C176.144 30.6874 176.196 30.289 176.196 29.8671V29.6874C176.196 29.2708 176.144 28.8775 176.039 28.5078C175.94 28.1328 175.789 27.802 175.586 27.5156C175.388 27.2239 175.138 26.9947 174.836 26.8281C174.539 26.6614 174.19 26.5781 173.789 26.5781C173.394 26.5781 173.045 26.6614 172.743 26.8281C172.446 26.9947 172.196 27.2239 171.993 27.5156C171.795 27.802 171.646 28.1328 171.547 28.5078C171.448 28.8775 171.399 29.2708 171.399 29.6874ZM185.196 29.2109V30.3828H180.727V29.2109H185.196ZM181.032 25.5468V33.9999H179.586V25.5468H181.032ZM186.368 25.5468V33.9999H184.914V25.5468H186.368ZM192.078 32.9687C192.422 32.9687 192.74 32.8984 193.032 32.7578C193.323 32.6171 193.563 32.4244 193.75 32.1796C193.938 31.9296 194.045 31.6458 194.071 31.3281H195.446C195.42 31.8281 195.25 32.2942 194.938 32.7265C194.631 33.1536 194.227 33.4999 193.727 33.7656C193.227 34.026 192.677 34.1562 192.078 34.1562C191.443 34.1562 190.888 34.0442 190.414 33.8203C189.946 33.5963 189.555 33.289 189.243 32.8984C188.935 32.5078 188.703 32.0598 188.547 31.5546C188.396 31.0442 188.321 30.5051 188.321 29.9374V29.6093C188.321 29.0416 188.396 28.5051 188.547 27.9999C188.703 27.4895 188.935 27.039 189.243 26.6484C189.555 26.2578 189.946 25.9505 190.414 25.7265C190.888 25.5025 191.443 25.3906 192.078 25.3906C192.74 25.3906 193.318 25.526 193.813 25.7968C194.308 26.0624 194.696 26.427 194.977 26.8906C195.263 27.3489 195.42 27.8697 195.446 28.4531H194.071C194.045 28.1041 193.946 27.789 193.774 27.5078C193.607 27.2265 193.378 27.0025 193.086 26.8359C192.8 26.664 192.464 26.5781 192.078 26.5781C191.636 26.5781 191.263 26.6666 190.961 26.8437C190.664 27.0156 190.427 27.2499 190.25 27.5468C190.078 27.8385 189.953 28.164 189.875 28.5234C189.802 28.8775 189.766 29.2395 189.766 29.6093V29.9374C189.766 30.3072 189.802 30.6718 189.875 31.0312C189.948 31.3906 190.071 31.7161 190.243 32.0078C190.42 32.2994 190.657 32.5338 190.953 32.7109C191.256 32.8828 191.631 32.9687 192.078 32.9687ZM199.446 33.1249L201.797 25.5468H203.344L199.953 35.3046C199.875 35.513 199.771 35.7369 199.641 35.9765C199.516 36.2213 199.355 36.4531 199.157 36.6718C198.959 36.8906 198.719 37.0676 198.438 37.2031C198.162 37.3437 197.831 37.414 197.446 37.414C197.331 37.414 197.185 37.3984 197.008 37.3671C196.831 37.3359 196.706 37.3098 196.633 37.289L196.625 36.1171C196.667 36.1223 196.732 36.1275 196.821 36.1328C196.914 36.1432 196.98 36.1484 197.016 36.1484C197.344 36.1484 197.623 36.1041 197.852 36.0156C198.081 35.9322 198.274 35.789 198.43 35.5859C198.592 35.388 198.73 35.1145 198.844 34.7656L199.446 33.1249ZM197.719 25.5468L199.914 32.1093L200.289 33.6328L199.25 34.164L196.141 25.5468H197.719ZM209.969 25.5468V26.7421H205.883V25.5468H209.969ZM211.243 25.5468V33.9999H209.797V25.5468H211.243ZM205.532 25.5468H206.985L206.766 29.6249C206.73 30.2551 206.67 30.8124 206.586 31.2968C206.508 31.776 206.399 32.1874 206.258 32.5312C206.123 32.8749 205.951 33.1562 205.743 33.3749C205.539 33.5885 205.295 33.7473 205.008 33.8515C204.722 33.9505 204.391 33.9999 204.016 33.9999H203.563V32.7265L203.875 32.7031C204.099 32.6874 204.289 32.6354 204.446 32.5468C204.607 32.4583 204.743 32.3281 204.852 32.1562C204.961 31.9791 205.05 31.7525 205.118 31.4765C205.19 31.2005 205.245 30.8723 205.282 30.4921C205.323 30.1119 205.355 29.6692 205.375 29.164L205.532 25.5468ZM214.758 28.4531H217.297C217.98 28.4531 218.555 28.5729 219.024 28.8124C219.493 29.0468 219.847 29.3723 220.086 29.789C220.331 30.2005 220.453 30.6692 220.453 31.1953C220.453 31.5859 220.386 31.9531 220.25 32.2968C220.115 32.6354 219.912 32.9322 219.641 33.1874C219.375 33.4426 219.045 33.6432 218.649 33.789C218.258 33.9296 217.808 33.9999 217.297 33.9999H213.703V25.5468H215.149V32.8124H217.297C217.714 32.8124 218.047 32.7369 218.297 32.5859C218.547 32.4348 218.727 32.2395 218.836 31.9999C218.946 31.7604 219 31.5104 219 31.2499C219 30.9947 218.946 30.7447 218.836 30.4999C218.727 30.2551 218.547 30.052 218.297 29.8906C218.047 29.7239 217.714 29.6406 217.297 29.6406H214.758V28.4531ZM225.157 25.5468V33.9999H223.703V25.5468H225.157ZM227.993 25.5468V26.7187H220.922V25.5468H227.993ZM234.274 32.5546V28.2031C234.274 27.8697 234.206 27.5807 234.071 27.3359C233.94 27.0859 233.743 26.8932 233.477 26.7578C233.211 26.6223 232.883 26.5546 232.493 26.5546C232.128 26.5546 231.808 26.6171 231.532 26.7421C231.261 26.8671 231.047 27.0312 230.891 27.2343C230.74 27.4374 230.664 27.6562 230.664 27.8906H229.219C229.219 27.5885 229.297 27.289 229.453 26.9921C229.61 26.6953 229.834 26.427 230.125 26.1874C230.422 25.9426 230.776 25.7499 231.188 25.6093C231.605 25.4635 232.068 25.3906 232.578 25.3906C233.193 25.3906 233.735 25.4947 234.203 25.7031C234.677 25.9114 235.047 26.2265 235.313 26.6484C235.584 27.065 235.719 27.5885 235.719 28.2187V32.1562C235.719 32.4374 235.743 32.7369 235.789 33.0546C235.842 33.3723 235.917 33.6458 236.016 33.8749V33.9999H234.508C234.435 33.8333 234.378 33.6119 234.336 33.3359C234.295 33.0546 234.274 32.7942 234.274 32.5546ZM234.524 28.8749L234.539 29.8906H233.078C232.667 29.8906 232.3 29.9244 231.977 29.9921C231.654 30.0546 231.383 30.151 231.164 30.2812C230.946 30.4114 230.779 30.5755 230.664 30.7734C230.55 30.9661 230.493 31.1926 230.493 31.4531C230.493 31.7187 230.552 31.9609 230.672 32.1796C230.792 32.3984 230.972 32.5729 231.211 32.7031C231.456 32.8281 231.756 32.8906 232.11 32.8906C232.552 32.8906 232.943 32.7968 233.282 32.6093C233.62 32.4218 233.888 32.1926 234.086 31.9218C234.289 31.651 234.399 31.388 234.414 31.1328L235.032 31.8281C234.995 32.0468 234.896 32.289 234.735 32.5546C234.573 32.8203 234.357 33.0755 234.086 33.3203C233.821 33.5598 233.503 33.7604 233.133 33.9218C232.769 34.0781 232.357 34.1562 231.899 34.1562C231.326 34.1562 230.823 34.0442 230.391 33.8203C229.964 33.5963 229.631 33.2968 229.391 32.9218C229.157 32.5416 229.039 32.1171 229.039 31.6484C229.039 31.1953 229.128 30.7968 229.305 30.4531C229.482 30.1041 229.737 29.815 230.071 29.5859C230.404 29.3515 230.805 29.1744 231.274 29.0546C231.743 28.9348 232.266 28.8749 232.844 28.8749H234.524ZM243.727 29.2109V30.3828H239.258V29.2109H243.727ZM239.563 25.5468V33.9999H238.118V25.5468H239.563ZM244.899 25.5468V33.9999H243.446V25.5468H244.899ZM250.672 25.5468V33.9999H249.219V25.5468H250.672ZM253.508 25.5468V26.7187H246.438V25.5468H253.508ZM257.399 33.1249L259.75 25.5468H261.297L257.907 35.3046C257.828 35.513 257.724 35.7369 257.594 35.9765C257.469 36.2213 257.308 36.4531 257.11 36.6718C256.912 36.8906 256.672 37.0676 256.391 37.2031C256.115 37.3437 255.784 37.414 255.399 37.414C255.284 37.414 255.138 37.3984 254.961 37.3671C254.784 37.3359 254.659 37.3098 254.586 37.289L254.578 36.1171C254.62 36.1223 254.685 36.1275 254.774 36.1328C254.868 36.1432 254.933 36.1484 254.969 36.1484C255.297 36.1484 255.576 36.1041 255.805 36.0156C256.034 35.9322 256.227 35.789 256.383 35.5859C256.545 35.388 256.683 35.1145 256.797 34.7656L257.399 33.1249ZM255.672 25.5468L257.868 32.1093L258.243 33.6328L257.203 34.164L254.094 25.5468H255.672ZM266.188 29.8671V29.6874C266.188 29.0781 266.276 28.513 266.453 27.9921C266.631 27.4661 266.886 27.0104 267.219 26.6249C267.552 26.2343 267.956 25.9322 268.43 25.7187C268.904 25.4999 269.435 25.3906 270.024 25.3906C270.618 25.3906 271.151 25.4999 271.625 25.7187C272.105 25.9322 272.511 26.2343 272.844 26.6249C273.183 27.0104 273.44 27.4661 273.618 27.9921C273.795 28.513 273.883 29.0781 273.883 29.6874V29.8671C273.883 30.4765 273.795 31.0416 273.618 31.5624C273.44 32.0833 273.183 32.539 272.844 32.9296C272.511 33.315 272.107 33.6171 271.633 33.8359C271.164 34.0494 270.633 34.1562 270.039 34.1562C269.446 34.1562 268.912 34.0494 268.438 33.8359C267.964 33.6171 267.558 33.315 267.219 32.9296C266.886 32.539 266.631 32.0833 266.453 31.5624C266.276 31.0416 266.188 30.4765 266.188 29.8671ZM267.633 29.6874V29.8671C267.633 30.289 267.683 30.6874 267.782 31.0624C267.881 31.4322 268.029 31.7604 268.227 32.0468C268.43 32.3333 268.683 32.5598 268.985 32.7265C269.287 32.888 269.638 32.9687 270.039 32.9687C270.435 32.9687 270.782 32.888 271.078 32.7265C271.381 32.5598 271.631 32.3333 271.828 32.0468C272.026 31.7604 272.175 31.4322 272.274 31.0624C272.378 30.6874 272.43 30.289 272.43 29.8671V29.6874C272.43 29.2708 272.378 28.8775 272.274 28.5078C272.175 28.1328 272.024 27.802 271.821 27.5156C271.623 27.2239 271.373 26.9947 271.071 26.8281C270.774 26.6614 270.425 26.5781 270.024 26.5781C269.628 26.5781 269.279 26.6614 268.977 26.8281C268.68 26.9947 268.43 27.2239 268.227 27.5156C268.029 27.802 267.881 28.1328 267.782 28.5078C267.683 28.8775 267.633 29.2708 267.633 29.6874ZM281.43 29.2109V30.3828H276.961V29.2109H281.43ZM277.266 25.5468V33.9999H275.821V25.5468H277.266ZM282.602 25.5468V33.9999H281.149V25.5468H282.602ZM290.578 25.5468V26.7421H286.493V25.5468H290.578ZM291.852 25.5468V33.9999H290.407V25.5468H291.852ZM286.141 25.5468H287.594L287.375 29.6249C287.339 30.2551 287.279 30.8124 287.196 31.2968C287.118 31.776 287.008 32.1874 286.868 32.5312C286.732 32.8749 286.56 33.1562 286.352 33.3749C286.149 33.5885 285.904 33.7473 285.618 33.8515C285.331 33.9505 285 33.9999 284.625 33.9999H284.172V32.7265L284.485 32.7031C284.709 32.6874 284.899 32.6354 285.055 32.5468C285.217 32.4583 285.352 32.3281 285.461 32.1562C285.571 31.9791 285.659 31.7525 285.727 31.4765C285.8 31.2005 285.855 30.8723 285.891 30.4921C285.933 30.1119 285.964 29.6692 285.985 29.164L286.141 25.5468ZM299.164 32.5546V28.2031C299.164 27.8697 299.097 27.5807 298.961 27.3359C298.831 27.0859 298.633 26.8932 298.368 26.7578C298.102 26.6223 297.774 26.5546 297.383 26.5546C297.019 26.5546 296.698 26.6171 296.422 26.7421C296.151 26.8671 295.938 27.0312 295.782 27.2343C295.631 27.4374 295.555 27.6562 295.555 27.8906H294.11C294.11 27.5885 294.188 27.289 294.344 26.9921C294.5 26.6953 294.724 26.427 295.016 26.1874C295.313 25.9426 295.667 25.7499 296.078 25.6093C296.495 25.4635 296.959 25.3906 297.469 25.3906C298.084 25.3906 298.625 25.4947 299.094 25.7031C299.568 25.9114 299.938 26.2265 300.203 26.6484C300.474 27.065 300.61 27.5885 300.61 28.2187V32.1562C300.61 32.4374 300.633 32.7369 300.68 33.0546C300.732 33.3723 300.808 33.6458 300.907 33.8749V33.9999H299.399C299.326 33.8333 299.269 33.6119 299.227 33.3359C299.185 33.0546 299.164 32.7942 299.164 32.5546ZM299.414 28.8749L299.43 29.8906H297.969C297.558 29.8906 297.19 29.9244 296.868 29.9921C296.545 30.0546 296.274 30.151 296.055 30.2812C295.836 30.4114 295.67 30.5755 295.555 30.7734C295.44 30.9661 295.383 31.1926 295.383 31.4531C295.383 31.7187 295.443 31.9609 295.563 32.1796C295.683 32.3984 295.862 32.5729 296.102 32.7031C296.347 32.8281 296.646 32.8906 297 32.8906C297.443 32.8906 297.834 32.7968 298.172 32.6093C298.511 32.4218 298.779 32.1926 298.977 31.9218C299.18 31.651 299.289 31.388 299.305 31.1328L299.922 31.8281C299.886 32.0468 299.787 32.289 299.625 32.5546C299.464 32.8203 299.248 33.0755 298.977 33.3203C298.711 33.5598 298.394 33.7604 298.024 33.9218C297.659 34.0781 297.248 34.1562 296.789 34.1562C296.217 34.1562 295.714 34.0442 295.282 33.8203C294.855 33.5963 294.521 33.2968 294.282 32.9218C294.047 32.5416 293.93 32.1171 293.93 31.6484C293.93 31.1953 294.019 30.7968 294.196 30.4531C294.373 30.1041 294.628 29.815 294.961 29.5859C295.295 29.3515 295.696 29.1744 296.164 29.0546C296.633 28.9348 297.157 28.8749 297.735 28.8749H299.414ZM304.446 31.7109L308.344 25.5468H309.797V33.9999H308.344V27.8359L304.446 33.9999H303.008V25.5468H304.446V31.7109ZM307.555 22.4843H308.727C308.727 22.8906 308.633 23.2525 308.446 23.5703C308.258 23.8828 307.99 24.1275 307.641 24.3046C307.292 24.4817 306.878 24.5703 306.399 24.5703C305.675 24.5703 305.102 24.3775 304.68 23.9921C304.263 23.6015 304.055 23.0989 304.055 22.4843H305.227C305.227 22.7916 305.315 23.0624 305.493 23.2968C305.67 23.5312 305.972 23.6484 306.399 23.6484C306.815 23.6484 307.112 23.5312 307.289 23.2968C307.467 23.0624 307.555 22.7916 307.555 22.4843ZM317.852 29.2109V30.3828H313.383V29.2109H317.852ZM313.688 25.5468V33.9999H312.243V25.5468H313.688ZM319.024 25.5468V33.9999H317.571V25.5468H319.024Z" fill="white"/>
</svg>
