<svg width="12" height="12" viewBox="0 0 12 12" fill="none" xmlns="http://www.w3.org/2000/svg">
<path d="M6.58091 0.807439L5.41772 0.80744L5.41772 5.41895L0.806205 5.41895V6.58214L5.41772 6.58214L5.41772 11.1937L6.58091 11.1937L6.58091 6.58214L11.1924 6.58215V5.41895L6.58091 5.41895L6.58091 0.807439Z" fill="black" fill-opacity="0.5"/>
<path d="M6.83091 0.807439L6.83091 0.557439L6.58091 0.557439L5.41772 0.55744L5.16772 0.55744L5.16772 0.80744L5.16772 5.16895L0.806205 5.16895L0.556205 5.16895L0.556205 5.41895V6.58214L0.556205 6.83214L0.806205 6.83214L5.16772 6.83214L5.16772 11.1937L5.16772 11.4437L5.41772 11.4437L6.58091 11.4437L6.83091 11.4437L6.83091 11.1937L6.83091 6.83214L11.1924 6.83215H11.4424V6.58215V5.41895V5.16895H11.1924L6.83091 5.16895L6.83091 0.807439Z" stroke="black" stroke-opacity="0.5" stroke-width="0.5"/>
</svg>
